<svg xmlns="http://www.w3.org/2000/svg" width="206" height="206" version="1.2" viewBox="0 0 206 206"><g id="Background"><path id="Path 0" d="M-25 103v103h256V0H-25z" class="s0"/><path id="Path 1" fill-rule="evenodd" d="M30.5 35.67c-.46.36-.76 20.16-.67 44L30 123l148.5-.49L31 122c.39-67.43.46-87 .42-87-.05 0-.46.3-.92.67m31 .05c1.65.23 4.58.23 6.5 0 1.92-.22.58-.4-3-.4s-5.15.18-3.5.4m13.5 0c1.92.22 4.63.22 6-.01 1.38-.22-.2-.41-3.5-.4s-4.42.19-2.5.41m32 .02c3.57.19 9.88.19 14 0 4.13-.19 1.2-.34-6.5-.35-7.7 0-11.07.16-7.5.35m45.81-.03c1.28.24 3.08.23 4-.02.93-.25-.11-.45-2.31-.44s-2.96.22-1.69.46m10.69.03c2.75.2 6.8.2 9-.01s-.05-.38-5-.38c-4.95.01-6.75.18-4 .39m-55.82 101.97c-.27.44 3.63.63 8.66.44l9.16-.34c-.78 4.69-.64 5.75-.2 5.37.44-.37.67-1.8.5-3.18-.29-2.43-.56-2.51-8.96-2.79-4.77-.16-8.89.07-9.16.5m9.13 2c1.28.24 3.08.23 4-.02.93-.25-.11-.45-2.31-.44s-2.96.22-1.69.46M110.37 150c0 5.78.17 8.03.37 5 .2-3.02.2-7.75 0-10.5s-.37-.27-.37 5.5m-63.82-4c-.3.55.46 1.47 1.7 2.06 2.18 1.02 2.18 1 .25-.45l-2-1.5c3.5-.77 3.58-.91 2.3-.99-.94-.07-1.95.33-2.25.88m86.95-.31c1.1.25 2.68.25 3.5 0s-.07-.46-2-.46-2.6.21-1.5.46m20.68.91c-.57.88-1.3 2.34-1.61 3.25-.3.91-.22 1.28.19.82s.74-1.35.74-1.97c0-.63 1.12-1.71 2.5-2.41q2.47-1.25.86-1.28c-.9 0-2.11.71-2.68 1.59m18.32-.98c1.1.19 2.68 1.09 3.5 2.01 1.05 1.16 1.44 3.5 1.29 7.77-.12 3.35-.04 5.65.18 5.1s.54-3.77.72-7.15c.17-3.38-.03-5.97-.44-5.75s-1.31-.3-2-1.14c-.69-.85-2.15-1.47-3.25-1.37l-2 .18zm-94.25 4.89c.01 2.38.2 2.99.45 1.5.24-1.38.23-3.18-.02-4-.25-.83-.44.3-.43 2.5m84.08 4c0 3.85.18 5.2.4 3 .21-2.2.21-5.35-.01-7s-.4.15-.39 4m-102.22-4c-.83 1.12-1.61 1.24-3.11.5-1.1-.55-2-.78-2-.5 0 .27.79.93 1.75 1.47 1.31.73 2.22.48 3.62-1 1.03-1.09 1.65-1.97 1.37-1.97-.29 0-1.02.67-1.63 1.5m106.16-.13c-.38.76-.47 3.57-.21 6.25l.48 4.88c.74-9.7.84-12.51.69-12.51-.16 0-.59.62-.96 1.38m22.05 4.63c0 3.57.18 4.92.4 3 .23-1.93.23-4.85 0-6.5-.22-1.65-.4-.08-.4 3.5m-15.01.5c.01 3.3.19 4.42.41 2.5.22-1.93.22-4.63-.01-6-.22-1.38-.41.2-.4 3.5m11 0c.01 3.3.19 4.42.41 2.5.22-1.93.22-4.63-.01-6-.22-1.38-.41.2-.4 3.5M26.4 154.8c-.38.43 1.06.63 3.2.44 2.15-.19 4.57-.5 5.4-.68.82-.18-.62-.37-3.2-.44-2.59-.06-5.01.24-5.4.68m23.35 4.16-2.25 2.53c3.67-3.09 5.47-4.09 6.37-4.23.9-.13 1.85-.47 2.13-.75.27-.28-.51-.41-1.75-.29s-3.27 1.35-4.5 2.74M19 162.26c0 .41 2.02.75 4.5.75 2.47 0 4.5-.34 4.5-.75 0-.42-2.03-.75-4.5-.75-2.48 0-4.5.33-4.5.75m21-.17c-4.73.51-4.2.61 3.75.75 5.09.09 9.43-.17 9.65-.58.22-.42-1.47-.75-3.75-.75s-6.63.26-9.65.58m21-.08-4.5.69c7.36.24 9.5-.14 9.5-.69s-.11-.94-.25-.85c-.14.08-2.28.46-4.75.85m6 .25c0 .41 2.25.75 5 .75s5-.34 5-.75c0-.42-2.25-.75-5-.75s-5 .33-5 .75m83-.25-4.5.69c7.36.24 9.5-.14 9.5-.69s-.11-.94-.25-.85c-.14.08-2.28.46-4.75.85m9.77.2c.13.44 2.37.76 4.98.72 2.61-.05 4.3-.24 3.75-.43s-2.79-.52-4.98-.72c-2.18-.21-3.87-.01-3.75.43m11.23.05c0 .41 2.02.75 4.5.75 2.47 0 4.5-.34 4.5-.75 0-.42-2.03-.75-4.5-.75-2.48 0-4.5.33-4.5.75m11 0c0 .41 2.02.75 4.5.75 2.47 0 4.5-.34 4.5-.75 0-.42-2.03-.75-4.5-.75-2.48 0-4.5.33-4.5.75m-72 .46c1.37.23 3.85.23 5.5 0s.52-.42-2.5-.42c-3.03 0-4.38.19-3 .42" class="s1"/><path id="Path 2" d="M31 79v43h147V36H31zm56.13 59.09c-1.85.51-4.44 2.27-5.75 3.92-1.79 2.25-2.38 4.23-2.38 7.99 0 3.09.67 6.01 1.75 7.64.96 1.46 3.78 3.64 6.25 4.86s5.85 2.95 7.5 3.85 3.67 1.66 4.5 1.69c.83.02 2.62-.88 4-2.01l2.5-2.06c-4.65.97-7.01.97-8.25.64-1.24-.34-2.25-.95-2.25-1.36s1.23-1.3 2.75-1.97c1.51-.66 3.62-2.69 4.68-4.5 1.07-1.8 1.94-5.08 1.95-7.28.01-2.49-.81-5.23-2.18-7.25-1.21-1.79-2.99-3.44-3.95-3.68-.96-.23-3.1-.64-4.75-.92-1.65-.27-4.52-.07-6.37.44m-60.19 10.98c-2.44 6.14-5.12 11.54-5.94 12.01-1.02.59-.23.86 2.5.87 2.26.01 3.41-.3 2.64-.72-1.01-.55-1.12-1.48-.42-3.73.85-2.71 1.38-3.02 5.61-3.25 4.47-.24 4.71-.11 5.69 3 .56 1.79 1.01 3.36 1 3.5s-.81.42-1.77.63c-.96.22.72.43 3.75.49 3.89.07 5.06-.18 4-.87-.83-.53-3.37-5.81-5.66-11.74-2.28-5.92-4.79-10.89-5.56-11.05-.96-.2-2.84 3.3-5.84 10.86m43.15-9.14c-.06 1.43.45 1.99 1.66 1.81.96-.15 1.75-.93 1.75-1.74s-.75-1.62-1.66-1.81q-1.66-.33-1.75 1.74m39.16-.9c1.49.82 1.75 2.48 1.75 10.97s-.26 10.15-1.75 10.97c-1.29.71-.31.95 3.75.88 3.03-.04 4.71-.25 3.75-.47-1.38-.3-1.75-1.43-1.75-5.38v-5c5.43 0 7.19.56 7.42 1.25s.42-.32.42-2.25-.19-2.94-.42-2.25-1.99 1.25-3.92 1.25H115v-10c6.02 0 7.42.63 8.51 2.25l1.51 2.25-.02-5.5c-14.95.05-16.99.34-15.75 1.03m-59.56 9.72c1.38 1.51 2.91 3.54 3.41 4.5.69 1.34.11 2.57-2.5 5.25l-3.4 3.5c4.9-.02 5.78-.36 5.12-.77-.86-.53-.67-1.41.7-3.23 1.86-2.47 1.9-2.48 3.4-.5.84 1.1 1.31 2.56 1.05 3.25-.33.87.68 1.24 3.28 1.2l3.75-.04c-5.06-5.74-6.53-7.97-6.52-8.66s1.6-2.6 3.52-4.25l3.5-3c-4.98 0-5.84.42-5.53 1.25.26.69-.22 2.15-1.06 3.25l-1.53 2c-2.27-3.1-2.69-4.56-2.4-5.25.36-.88-.65-1.25-3.39-1.25h-3.9zM68 147c0 .55.45 1 1 1 .56 0 1 2.83 1 6.5 0 4.31-.43 6.64-1.25 6.92-.69.23.77.42 3.25.42 2.47 0 3.93-.19 3.25-.42-.86-.29-1.25-2.81-1.25-7.92V146c-4.65 0-6 .45-6 1m61 1c-1.1 1.1-2.28 3.24-2.62 4.75-.33 1.51-.11 3.76.5 5 .62 1.24 2.13 2.96 3.37 3.82 1.48 1.04 3.44 1.39 5.75 1.04 1.92-.3 4.24-1.34 5.15-2.33.91-.98 1.75-2.68 1.87-3.78.11-1.1.15-3.01.09-4.25S142.1 149.1 141 148q-2-2-6-2t-6 2m18-1q-1.5.97-.25.98c.87.02 1.25 1.99 1.25 6.52 0 4.31-.43 6.64-1.25 6.92-.69.23.77.45 3.25.49 2.47.03 3.91-.27 3.2-.68-.84-.47-1.25-2.65-1.16-6.23.07-3.03.09-6.29.04-7.25-.05-.97-.86-1.74-1.83-1.73-.97 0-2.43.45-3.25.98m7.15.25c-.81.94-.47 1.37 1.35 1.75 1.42.29 2.65-.02 2.96-.75.3-.69.54-1.47.54-1.75s-.85-.5-1.89-.5-2.37.56-2.96 1.25M161 147c-1.29.83-1.25.97.25.98 1.48.02 1.75 1 1.75 6.52 0 4.31-.43 6.64-1.25 6.92-.69.23.77.41 3.25.39 2.47-.03 3.71-.21 2.75-.43-1.41-.3-1.75-1.45-1.75-5.88 0-4.83.29-5.65 2.45-6.75 2.03-1.04 2.72-.99 4.04.25 1.08 1.02 1.58 3.19 1.55 6.75-.03 3.27-.51 5.41-1.29 5.67-.69.23.55.42 2.75.42s3.43-.19 2.75-.42c-.8-.27-1.25-2.41-1.25-5.92 0-4.83.29-5.64 2.4-6.65 1.9-.9 2.76-.85 4.05.25 1.14.98 1.62 2.98 1.59 6.65-.03 3.27-.51 5.41-1.29 5.67-.69.23.55.42 2.75.42s3.43-.19 2.75-.42c-.82-.27-1.25-2.51-1.25-6.42 0-3.3-.23-6.68-.5-7.5-.29-.85-1.7-1.5-3.25-1.51-1.52 0-3.77.67-5 1.5-2.01 1.35-2.39 1.35-3.5-.03-.69-.85-2.04-1.53-3-1.5-.97.02-2.77.56-4 1.19-1.7.87-2.32.87-2.5 0-.14-.63-1.04-1.14-2-1.13-.97 0-2.43.45-3.25.98" style="fill:#d3c3a8"/><path id="Path 3" d="M58.25 38.73 33 39l.04 48.5C39.88 73.55 44.3 66.58 47.29 63c2.98-3.57 7.85-8.35 10.81-10.62 2.97-2.26 7.43-5.24 9.9-6.63 2.47-1.38 6.75-3.31 9.5-4.3 2.75-.98 5.43-2.16 5.95-2.62.52-.45.75-.73.5-.6s-11.81.35-25.7.5M91 40.63c-3.58.79-9.88 2.89-14 4.68-4.13 1.79-10.17 5.04-13.42 7.22-3.26 2.18-8.57 6.89-11.8 10.47-3.24 3.58-7.64 9.88-9.78 14-2.15 4.13-4.78 10.88-5.86 15-1.08 4.13-2.34 11.38-2.8 16.12-.63 6.45-.52 9.03.41 10.25C34.87 119.82 38.98 120 72 120h37V39c-8.91.16-14.42.84-18 1.63M113 62v23l60.5-.04c-.52-4.23-1.63-8.38-2.79-11.96-1.17-3.58-4.06-9.09-6.42-12.25s-6.65-7.52-9.54-9.69c-2.89-2.16-7.72-5.07-10.75-6.45s-8.2-3.21-11.5-4.07c-3.3-.85-9.04-1.55-12.75-1.55L113 39zm35-18.81c6.09 3.04 10.15 5.95 14.32 10.28 3.41 3.53 7.25 8.93 9.28 13.03l3.45 7L175 39l-35.5-.06zm-35.03 47.06-.04 2.25c3.21-3.1 4.12-4.11 4.1-4.25-.02-.13-.93-.25-2.03-.25-1.4 0-2.01.68-2.03 2.25M139 103.5V119c5.04.02 8.97-.71 12-1.6 3.03-.9 7.41-2.93 9.75-4.51 2.34-1.59 5.35-4.35 6.69-6.14 1.34-1.78 3.09-4.82 3.89-6.75.79-1.92 1.72-5.41 2.06-7.75L174 88h-35zm-18-12.95c-1.93.79-4.29 2.79-5.25 4.45L114 98h12c0-6.97-.34-8.97-.75-8.94-.41.02-2.32.7-4.25 1.49m7.04 2.93c-.04 4.51-.03 4.52 3.46 4.52 2.44 0 3.5-.45 3.5-1.5 0-.82-.34-2.23-.75-3.14-.41-.9-1.97-2.26-3.46-3.02l-2.71-1.39zm-14 9.5c-.02 1.11.59 3.27 1.37 4.78.77 1.51 2.46 3.71 3.75 4.88 1.29 1.18 3.69 2.82 5.34 3.66 1.65.85 4.8 1.69 7 1.87l4 .34v-17c-20.91-.55-21.43-.47-21.46 1.47m59.23.78c-.61 1.51-3.06 4.78-5.44 7.27s-6.02 5.3-8.08 6.25-3.75 1.95-3.75 2.23c0 .27 4.28.39 9.5.25l9.51-.25c-.01-14.34-.15-18.5-.31-18.5-.17 0-.81 1.24-1.43 2.75m-60.17 12.2-.1 4.05c6.98 0 9.04-.13 9.1-.29.05-.16-1.93-1.98-4.41-4.05l-4.5-3.76zM87.26 140.5c-1.24.83-2.75 3.2-3.35 5.26-.79 2.72-.79 4.92 0 8 .62 2.41 2.07 4.9 3.35 5.76 1.23.83 3.48 1.5 5 1.5q2.75-.01 4.78-2.76c1.12-1.51 2.22-4.18 2.45-5.94.22-1.75-.02-4.78-.54-6.75-.52-1.96-1.96-4.24-3.19-5.07-1.24-.83-3.15-1.51-4.25-1.51s-3.02.68-4.25 1.51m-57.55 7.26-1.7 4.25c4.65 0 5.96-.34 5.92-.75s-.62-2.33-1.3-4.25l-1.21-3.5zm102.29.45c-.83.71-1.32 2.76-1.2 5 .11 2.09.65 4.7 1.2 5.8s1.9 2 3 2 2.45-.9 3-2 1-3.24 1.01-4.75c0-1.51-.67-3.76-1.5-5s-2.09-2.25-2.81-2.25c-.71 0-1.93.54-2.7 1.2" class="s0"/><path id="Path 4" d="M58.5 38.95c14.3.3 26.67.24 27.5-.14.83-.37-10.88-.62-26-.54l-27.5.14zm46.25-.28 4.25.32.52 81.5.48-82.5-9.5.35zm7.48 23.08.23 23.75L113 39l11.5-.62L112 38zM136 38.5c.27.3 9.05.52 19.5.47 10.45-.04 19.19-.28 19.42-.52.23-.25-8.55-.46-19.5-.48-10.96-.01-19.7.22-19.42.53m-66.43 6.07c-1.61.82-2.85 1.7-2.75 1.96s1.64-.26 3.43-1.16c1.79-.89 3.44-1.79 3.67-2 .23-.2 0-.35-.5-.33-.51.02-2.24.71-3.85 1.53M51.94 57.75 48.5 61.5c5.84-5.43 7.53-7.11 7.52-7.25s-.16-.25-.33-.25-1.85 1.69-3.75 3.75m1 3L49.5 64.5c5.84-5.43 7.53-7.11 7.52-7.25s-.16-.25-.33-.25-1.85 1.69-3.75 3.75M112 91c0 1.65.34 2.8.75 2.56s.62-1.59.47-3c-.16-1.41-.5-2.56-.75-2.56-.26 0-.47 1.35-.47 3m26.42 20.42c.06 6.15.41 8.01 1.58 8.32q1.55.43.31-.42c-.68-.46-1.36-4.07-1.58-8.32l-.38-7.5zm-26.25 3.83.17 5.25.71-9 6.44 5.99c-4.87-5.8-6.56-7.49-6.89-7.49s-.53 2.36-.43 5.25m-78.74 34.5c.49 1.94.13 2.29-2.69 2.59-3.12.33-3.1.35.5.5 2.43.1 3.75-.28 3.74-1.09-.01-.69-.49-1.93-1.07-2.75-.83-1.19-.93-1.03-.48.75" class="s1"/></g></svg>