<svg version="1.2" xmlns="http://www.w3.org/2000/svg" viewBox="0 0 206 206" width="206" height="206">
	<style>
		.s0 { fill: #0e1b2f } 
		.s1 { fill: #66584b } 
		.s2 { fill: #d3c3a8 } 
	</style>
	<g id="Background">
		<path id="Path 0" class="s0" d="m-25 103v103h256v-206h-256z"/>
		<path id="Path 1" fill-rule="evenodd" class="s1" d="m30.5 35.67c-0.46 0.36-0.76 20.16-0.67 44l0.17 43.33 148.5-0.49-147.5-0.51c0.39-67.43 0.46-87 0.42-87-0.05 0-0.46 0.3-0.92 0.67zm31 0.05c1.65 0.23 4.58 0.23 6.5 0 1.92-0.22 0.58-0.4-3-0.4-3.58 0-5.15 0.18-3.5 0.4zm13.5 0c1.92 0.22 4.63 0.22 6-0.01 1.38-0.22-0.2-0.41-3.5-0.4-3.3 0.01-4.42 0.19-2.5 0.41zm32 0.02c3.57 0.19 9.88 0.19 14 0 4.13-0.19 1.2-0.34-6.5-0.35-7.7 0-11.07 0.16-7.5 0.35zm45.81-0.03c1.28 0.24 3.08 0.23 4-0.02 0.93-0.25-0.11-0.45-2.31-0.44-2.2 0.01-2.96 0.22-1.69 0.46zm10.69 0.03c2.75 0.2 6.8 0.2 9-0.01 2.2-0.21-0.05-0.38-5-0.38-4.95 0.01-6.75 0.18-4 0.39zm-55.82 101.97c-0.27 0.44 3.63 0.63 8.66 0.44l9.16-0.34c-0.78 4.69-0.64 5.75-0.2 5.37 0.44-0.37 0.67-1.8 0.5-3.18-0.29-2.43-0.56-2.51-8.96-2.79-4.77-0.16-8.89 0.07-9.16 0.5zm9.13 2c1.28 0.24 3.08 0.23 4-0.02 0.93-0.25-0.11-0.45-2.31-0.44-2.2 0.01-2.96 0.22-1.69 0.46zm-6.44 10.29c0 5.78 0.17 8.03 0.37 5 0.2-3.02 0.2-7.75 0-10.5-0.2-2.75-0.37-0.27-0.37 5.5zm-63.82-4c-0.3 0.55 0.46 1.47 1.7 2.06 2.18 1.02 2.18 1 0.25-0.45l-2-1.5c3.5-0.77 3.58-0.91 2.3-0.99-0.94-0.07-1.95 0.33-2.25 0.88zm86.95-0.31c1.1 0.25 2.68 0.25 3.5 0 0.82-0.25-0.07-0.46-2-0.46-1.93 0-2.6 0.21-1.5 0.46zm20.68 0.91c-0.57 0.88-1.3 2.34-1.61 3.25-0.3 0.91-0.22 1.28 0.19 0.82 0.41-0.46 0.74-1.35 0.74-1.97 0-0.63 1.12-1.71 2.5-2.41q2.47-1.25 0.86-1.28c-0.9 0-2.11 0.71-2.68 1.59zm18.32-0.98c1.1 0.19 2.68 1.09 3.5 2.01 1.05 1.16 1.44 3.5 1.29 7.77-0.12 3.35-0.04 5.65 0.18 5.1 0.22-0.55 0.54-3.77 0.72-7.15 0.17-3.38-0.03-5.97-0.44-5.75-0.41 0.22-1.31-0.3-2-1.14-0.69-0.85-2.15-1.47-3.25-1.37l-2 0.18zm-94.25 4.89c0.01 2.38 0.2 2.99 0.45 1.5 0.24-1.38 0.23-3.18-0.02-4-0.25-0.83-0.44 0.3-0.43 2.5zm84.08 4c0 3.85 0.18 5.2 0.4 3 0.21-2.2 0.21-5.35-0.01-7-0.22-1.65-0.4 0.15-0.39 4zm-102.22-4c-0.83 1.12-1.61 1.24-3.11 0.5-1.1-0.55-2-0.78-2-0.5 0 0.27 0.79 0.93 1.75 1.47 1.31 0.73 2.22 0.48 3.62-1 1.03-1.09 1.65-1.97 1.37-1.97-0.29 0-1.02 0.67-1.63 1.5zm106.16-0.13c-0.38 0.76-0.47 3.57-0.21 6.25l0.48 4.88c0.74-9.7 0.84-12.51 0.69-12.51-0.16 0-0.59 0.62-0.96 1.38zm22.05 4.63c0 3.57 0.18 4.92 0.4 3 0.23-1.93 0.23-4.85 0-6.5-0.22-1.65-0.4-0.08-0.4 3.5zm-15.01 0.5c0.01 3.3 0.19 4.42 0.41 2.5 0.22-1.93 0.22-4.63-0.01-6-0.22-1.38-0.41 0.2-0.4 3.5zm11 0c0.01 3.3 0.19 4.42 0.41 2.5 0.22-1.93 0.22-4.63-0.01-6-0.22-1.38-0.41 0.2-0.4 3.5zm-157.91-0.71c-0.38 0.43 1.06 0.63 3.2 0.44 2.15-0.19 4.57-0.5 5.4-0.68 0.82-0.18-0.62-0.37-3.2-0.44-2.59-0.06-5.01 0.24-5.4 0.68zm23.35 4.16l-2.25 2.53c3.67-3.09 5.47-4.09 6.37-4.23 0.9-0.13 1.85-0.47 2.13-0.75 0.27-0.28-0.51-0.41-1.75-0.29-1.24 0.12-3.27 1.35-4.5 2.74zm-30.75 3.3c0 0.41 2.02 0.75 4.5 0.75 2.47 0 4.5-0.34 4.5-0.75 0-0.42-2.03-0.75-4.5-0.75-2.48 0-4.5 0.33-4.5 0.75zm21-0.17c-4.73 0.51-4.2 0.61 3.75 0.75 5.09 0.09 9.43-0.17 9.65-0.58 0.22-0.42-1.47-0.75-3.75-0.75-2.28 0-6.63 0.26-9.65 0.58zm21-0.08l-4.5 0.69c7.36 0.24 9.5-0.14 9.5-0.69 0-0.55-0.11-0.94-0.25-0.85-0.14 0.08-2.28 0.46-4.75 0.85zm6 0.25c0 0.41 2.25 0.75 5 0.75 2.75 0 5-0.34 5-0.75 0-0.42-2.25-0.75-5-0.75-2.75 0-5 0.33-5 0.75zm83-0.25l-4.5 0.69c7.36 0.24 9.5-0.14 9.5-0.69 0-0.55-0.11-0.94-0.25-0.85-0.14 0.08-2.28 0.46-4.75 0.85zm9.77 0.2c0.13 0.44 2.37 0.76 4.98 0.72 2.61-0.05 4.3-0.24 3.75-0.43-0.55-0.19-2.79-0.52-4.98-0.72-2.18-0.21-3.87-0.01-3.75 0.43zm11.23 0.05c0 0.41 2.02 0.75 4.5 0.75 2.47 0 4.5-0.34 4.5-0.75 0-0.42-2.03-0.75-4.5-0.75-2.48 0-4.5 0.33-4.5 0.75zm11 0c0 0.41 2.02 0.75 4.5 0.75 2.47 0 4.5-0.34 4.5-0.75 0-0.42-2.03-0.75-4.5-0.75-2.48 0-4.5 0.33-4.5 0.75zm-72 0.46c1.37 0.23 3.85 0.23 5.5 0 1.65-0.23 0.52-0.42-2.5-0.42-3.03 0-4.38 0.19-3 0.42z"/>
		<path id="Path 2" class="s2" d="m31 79v43h147v-86h-147zm56.13 59.09c-1.85 0.51-4.44 2.27-5.75 3.92-1.79 2.25-2.38 4.23-2.38 7.99 0 3.09 0.67 6.01 1.75 7.64 0.96 1.46 3.78 3.64 6.25 4.86 2.47 1.22 5.85 2.95 7.5 3.85 1.65 0.9 3.67 1.66 4.5 1.69 0.83 0.02 2.62-0.88 4-2.01l2.5-2.06c-4.65 0.97-7.01 0.97-8.25 0.64-1.24-0.34-2.25-0.95-2.25-1.36 0-0.41 1.23-1.3 2.75-1.97 1.51-0.66 3.62-2.69 4.68-4.5 1.07-1.8 1.94-5.08 1.95-7.28 0.01-2.49-0.81-5.23-2.18-7.25-1.21-1.79-2.99-3.44-3.95-3.68-0.96-0.23-3.1-0.64-4.75-0.92-1.65-0.27-4.52-0.07-6.37 0.44zm-60.19 10.98c-2.44 6.14-5.12 11.54-5.94 12.01-1.02 0.59-0.23 0.86 2.5 0.87 2.26 0.01 3.41-0.3 2.64-0.72-1.01-0.55-1.12-1.48-0.42-3.73 0.85-2.71 1.38-3.02 5.61-3.25 4.47-0.24 4.71-0.11 5.69 3 0.56 1.79 1.01 3.36 1 3.5-0.01 0.14-0.81 0.42-1.77 0.63-0.96 0.22 0.72 0.43 3.75 0.49 3.89 0.07 5.06-0.18 4-0.87-0.83-0.53-3.37-5.81-5.66-11.74-2.28-5.92-4.79-10.89-5.56-11.05-0.96-0.2-2.84 3.3-5.84 10.86zm43.15-9.14c-0.06 1.43 0.45 1.99 1.66 1.81 0.96-0.15 1.75-0.93 1.75-1.74 0-0.81-0.75-1.62-1.66-1.81q-1.66-0.33-1.75 1.74zm39.16-0.9c1.49 0.82 1.75 2.48 1.75 10.97 0 8.49-0.26 10.15-1.75 10.97-1.29 0.71-0.31 0.95 3.75 0.88 3.03-0.04 4.71-0.25 3.75-0.47-1.38-0.3-1.75-1.43-1.75-5.38v-5c5.43 0 7.19 0.56 7.42 1.25 0.23 0.69 0.42-0.32 0.42-2.25 0-1.93-0.19-2.94-0.42-2.25-0.23 0.69-1.99 1.25-3.92 1.25h-3.5v-10c6.02 0 7.42 0.63 8.51 2.25l1.51 2.25-0.02-5.5c-14.95 0.05-16.99 0.34-15.75 1.03zm-59.56 9.72c1.38 1.51 2.91 3.54 3.41 4.5 0.69 1.34 0.11 2.57-2.5 5.25l-3.4 3.5c4.9-0.02 5.78-0.36 5.12-0.77-0.86-0.53-0.67-1.41 0.7-3.23 1.86-2.47 1.9-2.48 3.4-0.5 0.84 1.1 1.31 2.56 1.05 3.25-0.33 0.87 0.68 1.24 3.28 1.2l3.75-0.04c-5.06-5.74-6.53-7.97-6.52-8.66 0.01-0.69 1.6-2.6 3.52-4.25l3.5-3c-4.98 0-5.84 0.42-5.53 1.25 0.26 0.69-0.22 2.15-1.06 3.25l-1.53 2c-2.27-3.1-2.69-4.56-2.4-5.25 0.36-0.88-0.65-1.25-3.39-1.25h-3.9zm18.31-1.75c0 0.55 0.45 1 1 1 0.56 0 1 2.83 1 6.5 0 4.31-0.43 6.64-1.25 6.92-0.69 0.23 0.77 0.42 3.25 0.42 2.47 0 3.93-0.19 3.25-0.42-0.86-0.29-1.25-2.81-1.25-7.92v-7.5c-4.65 0-6 0.45-6 1zm61 1c-1.1 1.1-2.28 3.24-2.62 4.75-0.33 1.51-0.11 3.76 0.5 5 0.62 1.24 2.13 2.96 3.37 3.82 1.48 1.04 3.44 1.39 5.75 1.04 1.92-0.3 4.24-1.34 5.15-2.33 0.91-0.98 1.75-2.68 1.87-3.78 0.11-1.1 0.15-3.01 0.09-4.25-0.06-1.24-1.01-3.15-2.11-4.25q-2-2-6-2-4 0-6 2zm18-1q-1.5 0.97-0.25 0.98c0.87 0.02 1.25 1.99 1.25 6.52 0 4.31-0.43 6.64-1.25 6.92-0.69 0.23 0.77 0.45 3.25 0.49 2.47 0.03 3.91-0.27 3.2-0.68-0.84-0.47-1.25-2.65-1.16-6.23 0.07-3.03 0.09-6.29 0.04-7.25-0.05-0.97-0.86-1.74-1.83-1.73-0.97 0-2.43 0.45-3.25 0.98zm7.15 0.25c-0.81 0.94-0.47 1.37 1.35 1.75 1.42 0.29 2.65-0.02 2.96-0.75 0.3-0.69 0.54-1.47 0.54-1.75 0-0.28-0.85-0.5-1.89-0.5-1.04 0-2.37 0.56-2.96 1.25zm6.85-0.25c-1.29 0.83-1.25 0.97 0.25 0.98 1.48 0.02 1.75 1 1.75 6.52 0 4.31-0.43 6.64-1.25 6.92-0.69 0.23 0.77 0.41 3.25 0.39 2.47-0.03 3.71-0.21 2.75-0.43-1.41-0.3-1.75-1.45-1.75-5.88 0-4.83 0.29-5.65 2.45-6.75 2.03-1.04 2.72-0.99 4.04 0.25 1.08 1.02 1.58 3.19 1.55 6.75-0.03 3.27-0.51 5.41-1.29 5.67-0.69 0.23 0.55 0.42 2.75 0.42 2.2 0 3.43-0.19 2.75-0.42-0.8-0.27-1.25-2.41-1.25-5.92 0-4.83 0.29-5.64 2.4-6.65 1.9-0.9 2.76-0.85 4.05 0.25 1.14 0.98 1.62 2.98 1.59 6.65-0.03 3.27-0.51 5.41-1.29 5.67-0.69 0.23 0.55 0.42 2.75 0.42 2.2 0 3.43-0.19 2.75-0.42-0.82-0.27-1.25-2.51-1.25-6.42 0-3.3-0.23-6.68-0.5-7.5-0.29-0.85-1.7-1.5-3.25-1.51-1.52 0-3.77 0.67-5 1.5-2.01 1.35-2.39 1.35-3.5-0.03-0.69-0.85-2.04-1.53-3-1.5-0.97 0.02-2.77 0.56-4 1.19-1.7 0.87-2.32 0.87-2.5 0-0.14-0.63-1.04-1.14-2-1.13-0.97 0-2.43 0.45-3.25 0.98z"/>
		<path id="Path 3" class="s0" d="m58.25 38.73l-25.25 0.27 0.04 48.5c6.84-13.95 11.26-20.92 14.25-24.5 2.98-3.57 7.85-8.35 10.81-10.62 2.97-2.26 7.43-5.24 9.9-6.63 2.47-1.38 6.75-3.31 9.5-4.3 2.75-0.98 5.43-2.16 5.95-2.62 0.52-0.45 0.75-0.73 0.5-0.6-0.25 0.13-11.81 0.35-25.7 0.5zm32.75 1.9c-3.58 0.79-9.88 2.89-14 4.68-4.13 1.79-10.17 5.04-13.42 7.22-3.26 2.18-8.57 6.89-11.8 10.47-3.24 3.58-7.64 9.88-9.78 14-2.15 4.13-4.78 10.88-5.86 15-1.08 4.13-2.34 11.38-2.8 16.12-0.63 6.45-0.52 9.03 0.41 10.25 1.12 1.45 5.23 1.63 38.25 1.63h37v-81c-8.91 0.16-14.42 0.84-18 1.63zm22 21.37v23l60.5-0.04c-0.52-4.23-1.63-8.38-2.79-11.96-1.17-3.58-4.06-9.09-6.42-12.25-2.36-3.16-6.65-7.52-9.54-9.69-2.89-2.16-7.72-5.07-10.75-6.45-3.03-1.38-8.2-3.21-11.5-4.07-3.3-0.85-9.04-1.55-12.75-1.55l-6.75 0.01zm35-18.81c6.09 3.04 10.15 5.95 14.32 10.28 3.41 3.53 7.25 8.93 9.28 13.03l3.45 7-0.05-34.5-35.5-0.06zm-35.03 47.06l-0.04 2.25c3.21-3.1 4.12-4.11 4.1-4.25-0.02-0.13-0.93-0.25-2.03-0.25-1.4 0-2.01 0.68-2.03 2.25zm26.03 13.25v15.5c5.04 0.02 8.97-0.71 12-1.6 3.03-0.9 7.41-2.93 9.75-4.51 2.34-1.59 5.35-4.35 6.69-6.14 1.34-1.78 3.09-4.82 3.89-6.75 0.79-1.92 1.72-5.41 2.06-7.75l0.61-4.25h-35zm-18-12.95c-1.93 0.79-4.29 2.79-5.25 4.45l-1.75 3h12c0-6.97-0.34-8.97-0.75-8.94-0.41 0.02-2.32 0.7-4.25 1.49zm7.04 2.93c-0.04 4.51-0.03 4.52 3.46 4.52 2.44 0 3.5-0.45 3.5-1.5 0-0.82-0.34-2.23-0.75-3.14-0.41-0.9-1.97-2.26-3.46-3.02l-2.71-1.39zm-14 9.5c-0.02 1.11 0.59 3.27 1.37 4.78 0.77 1.51 2.46 3.71 3.75 4.88 1.29 1.18 3.69 2.82 5.34 3.66 1.65 0.85 4.8 1.69 7 1.87l4 0.34v-17c-20.91-0.55-21.43-0.47-21.46 1.47zm59.23 0.78c-0.61 1.51-3.06 4.78-5.44 7.27-2.38 2.49-6.02 5.3-8.08 6.25-2.06 0.95-3.75 1.95-3.75 2.23 0 0.27 4.28 0.39 9.5 0.25l9.51-0.25c-0.01-14.34-0.15-18.5-0.31-18.5-0.17 0-0.81 1.24-1.43 2.75zm-60.17 12.2l-0.1 4.05c6.98 0 9.04-0.13 9.1-0.29 0.05-0.16-1.93-1.98-4.41-4.05l-4.5-3.76zm-25.84 24.54c-1.24 0.83-2.75 3.2-3.35 5.26-0.79 2.72-0.79 4.92 0 8 0.62 2.41 2.07 4.9 3.35 5.76 1.23 0.83 3.48 1.5 5 1.5q2.75-0.01 4.78-2.76c1.12-1.51 2.22-4.18 2.45-5.94 0.22-1.75-0.02-4.78-0.54-6.75-0.52-1.96-1.96-4.24-3.19-5.07-1.24-0.83-3.15-1.51-4.25-1.51-1.1 0-3.02 0.68-4.25 1.51zm-57.55 7.26l-1.7 4.25c4.65 0 5.96-0.34 5.92-0.75-0.04-0.41-0.62-2.33-1.3-4.25l-1.21-3.5zm102.29 0.45c-0.83 0.71-1.32 2.76-1.2 5 0.11 2.09 0.65 4.7 1.2 5.8 0.55 1.1 1.9 2 3 2 1.1 0 2.45-0.9 3-2 0.55-1.1 1-3.24 1.01-4.75 0-1.51-0.67-3.76-1.5-5-0.83-1.24-2.09-2.25-2.81-2.25-0.71 0-1.93 0.54-2.7 1.2z"/>
		<path id="Path 4" class="s1" d="m58.5 38.95c14.3 0.3 26.67 0.24 27.5-0.14 0.83-0.37-10.88-0.62-26-0.54l-27.5 0.14zm46.25-0.28l4.25 0.32 0.52 81.5 0.48-82.5-9.5 0.35zm7.48 23.08l0.23 23.75 0.54-46.5 11.5-0.62-12.5-0.38zm23.77-23.25c0.27 0.3 9.05 0.52 19.5 0.47 10.45-0.04 19.19-0.28 19.42-0.52 0.23-0.25-8.55-0.46-19.5-0.48-10.96-0.01-19.7 0.22-19.42 0.53zm-66.43 6.07c-1.61 0.82-2.85 1.7-2.75 1.96 0.1 0.26 1.64-0.26 3.43-1.16 1.79-0.89 3.44-1.79 3.67-2 0.23-0.2 0-0.35-0.5-0.33-0.51 0.02-2.24 0.71-3.85 1.53zm-17.63 13.18l-3.44 3.75c5.84-5.43 7.53-7.11 7.52-7.25-0.01-0.14-0.16-0.25-0.33-0.25-0.17 0-1.85 1.69-3.75 3.75zm1 3l-3.44 3.75c5.84-5.43 7.53-7.11 7.52-7.25-0.01-0.14-0.16-0.25-0.33-0.25-0.17 0-1.85 1.69-3.75 3.75zm59.06 30.25c0 1.65 0.34 2.8 0.75 2.56 0.41-0.24 0.62-1.59 0.47-3-0.16-1.41-0.5-2.56-0.75-2.56-0.26 0-0.47 1.35-0.47 3zm26.42 20.42c0.06 6.15 0.41 8.01 1.58 8.32q1.55 0.43 0.31-0.42c-0.68-0.46-1.36-4.07-1.58-8.32l-0.38-7.5zm-26.25 3.83l0.17 5.25 0.71-9 6.44 5.99c-4.87-5.8-6.56-7.49-6.89-7.49-0.33 0-0.53 2.36-0.43 5.25zm-78.74 34.5c0.49 1.94 0.13 2.29-2.69 2.59-3.12 0.33-3.1 0.35 0.5 0.5 2.43 0.1 3.75-0.28 3.74-1.09-0.01-0.69-0.49-1.93-1.07-2.75-0.83-1.19-0.93-1.03-0.48 0.75z"/>
	</g>
</svg>