<?xml version="1.0" encoding="UTF-8"?>
<!DOCTYPE svg PUBLIC "-//W3C//DTD SVG 1.1//EN" "http://www.w3.org/Graphics/SVG/1.1/DTD/svg11.dtd">
<svg xmlns="http://www.w3.org/2000/svg" version="1.1" width="256px" height="206px" style="shape-rendering:geometricPrecision; text-rendering:geometricPrecision; image-rendering:optimizeQuality; fill-rule:evenodd; clip-rule:evenodd" xmlns:xlink="http://www.w3.org/1999/xlink">
<g><path style="opacity:1" fill="#0a192b" d="M -0.5,-0.5 C 84.8333,-0.5 170.167,-0.5 255.5,-0.5C 255.5,18.5 255.5,37.5 255.5,56.5C 251.74,54.861 248.406,55.5276 245.5,58.5C 246.727,59.5904 247.56,60.9238 248,62.5C 249.11,60.9632 250.61,60.2965 252.5,60.5C 252.167,62.5 251.833,64.5 251.5,66.5C 247.862,68.6345 243.862,69.6345 239.5,69.5C 239.5,68.1667 239.5,66.8333 239.5,65.5C 241.103,65.6882 242.437,65.1882 243.5,64C 239.27,62.3736 235.27,60.3736 231.5,58C 229.866,57.5065 228.199,57.3398 226.5,57.5C 226.595,60.2723 227.929,62.2723 230.5,63.5C 231.833,66.1667 233.167,68.8333 234.5,71.5C 235.149,69.3759 235.983,67.3759 237,65.5C 238.751,67.8309 238.585,70.1642 236.5,72.5C 238.392,76.47 239.392,76.1366 239.5,71.5C 242.365,71.0548 244.865,71.7215 247,73.5C 247.317,71.6992 247.984,71.3659 249,72.5C 249.756,74.8087 249.256,76.8087 247.5,78.5C 249.005,86.7265 250.338,87.0599 251.5,79.5C 250.667,77.5002 250.834,75.8335 252,74.5C 252.333,74.8333 252.667,75.1667 253,75.5C 253.203,79.4213 253.703,83.2546 254.5,87C 250.556,87.9895 246.889,87.4895 243.5,85.5C 242.833,90.8333 242.167,96.1667 241.5,101.5C 240.833,101.833 240.167,102.167 239.5,102.5C 238.482,99.7539 236.815,99.9205 234.5,103C 237.482,103.498 240.482,103.665 243.5,103.5C 243.579,104.93 243.246,106.264 242.5,107.5C 240.273,109.607 238.273,111.94 236.5,114.5C 238.333,117.29 239.333,116.957 239.5,113.5C 240.822,113.67 241.989,113.337 243,112.5C 245.478,104.117 247.312,103.95 248.5,112C 247.767,113.766 247.433,115.599 247.5,117.5C 245.167,118.167 242.833,118.833 240.5,119.5C 240.336,122.187 240.503,124.854 241,127.5C 244.406,129.979 245.906,133.312 245.5,137.5C 242.049,137.554 239.883,135.887 239,132.5C 237.182,134.645 235.682,134.645 234.5,132.5C 235.99,131.174 237.324,129.674 238.5,128C 237.207,127.51 235.873,127.343 234.5,127.5C 234.351,126.448 234.517,125.448 235,124.5C 236.11,126.037 237.61,126.703 239.5,126.5C 239.5,125.5 239.5,124.5 239.5,123.5C 234.371,123.281 234.371,122.614 239.5,121.5C 239.5,120.167 239.5,118.833 239.5,117.5C 236.619,116.726 233.952,115.393 231.5,113.5C 232.641,112.575 232.641,111.741 231.5,111C 234.285,110.342 236.951,109.509 239.5,108.5C 239.5,107.5 239.5,106.5 239.5,105.5C 235.837,105.952 232.17,106.452 228.5,107C 226.473,108.396 226.14,110.062 227.5,112C 226.271,113.529 224.771,114.696 223,115.5C 220.699,114.133 218.199,113.466 215.5,113.5C 215.5,111.5 215.5,109.5 215.5,107.5C 214.178,107.33 213.011,107.663 212,108.5C 211.837,110.676 211.004,112.509 209.5,114C 211.298,115.505 213.132,115.672 215,114.5C 216.883,115.653 217.716,117.319 217.5,119.5C 215.173,119.753 213.173,119.086 211.5,117.5C 210.522,117.977 209.689,118.643 209,119.5C 205.954,116.07 205.787,112.904 208.5,110C 208.155,107.27 207.989,104.437 208,101.5C 206.67,100.418 205.17,99.7512 203.5,99.5C 203.758,86.2768 204.091,73.1101 204.5,60C 203.911,52.0119 203.244,44.1786 202.5,36.5C 171.338,35.5018 140.004,35.1685 108.5,35.5C 90.8333,35.5 73.1667,35.5 55.5,35.5C 54.8333,35.5 54.5,35.8333 54.5,36.5C 53.8333,40.1667 53.1667,43.8333 52.5,47.5C 51.2114,53.1913 51.2114,59.0247 52.5,65C 52.0097,66.982 51.0097,68.6487 49.5,70C 50.8762,73.8731 51.8762,77.8731 52.5,82C 51.2073,85.8583 51.2073,89.6916 52.5,93.5C 51.5041,93.4142 50.6708,93.7476 50,94.5C 49.0249,100.79 48.8583,106.957 49.5,113C 49.3722,115.707 48.7055,118.207 47.5,120.5C 48.7515,122.001 49.7515,123.668 50.5,125.5C 49.6906,127.071 49.3573,128.738 49.5,130.5C 48.5,130.5 47.5,130.5 46.5,130.5C 46.5,129.5 46.5,128.5 46.5,127.5C 44.5992,127.567 42.7659,127.233 41,126.5C 37.5571,127.864 37.7238,128.531 41.5,128.5C 41.5198,130.143 40.8532,131.476 39.5,132.5C 41.4789,135.91 41.9789,139.577 41,143.5C 37.0451,143.629 32.8784,143.629 28.5,143.5C 28.3436,147.582 28.8436,151.582 30,155.5C 32.1385,155.768 34.4719,156.435 37,157.5C 39.2605,157.561 41.2605,156.894 43,155.5C 43.065,157.883 43.8983,158.55 45.5,157.5C 46.0995,153.456 47.4328,149.789 49.5,146.5C 48.5,146.5 47.5,146.5 46.5,146.5C 46.5,147.5 46.5,148.5 46.5,149.5C 42.4436,149.292 38.6102,149.958 35,151.5C 29.9055,151.168 29.4055,149.668 33.5,147C 32.8333,146.667 32.1667,146.333 31.5,146C 37.0543,146.05 42.3876,145.217 47.5,143.5C 48.086,143.709 48.586,144.043 49,144.5C 49.5946,143.101 49.4279,141.768 48.5,140.5C 49.0276,138.664 49.6942,136.997 50.5,135.5C 50.7541,139.802 50.7541,144.135 50.5,148.5C 49.6332,151.908 48.4665,155.242 47,158.5C 46.5831,159.756 45.7498,160.423 44.5,160.5C 43.9569,160.56 43.6236,160.893 43.5,161.5C 45,161.833 46.5,162.167 48,162.5C 49.9855,162.431 51.4855,161.765 52.5,160.5C 53.7767,157.448 56.11,156.115 59.5,156.5C 59.5,157.833 59.5,159.167 59.5,160.5C 59.5,161.167 59.5,161.833 59.5,162.5C 61.1175,163.972 63.1175,164.639 65.5,164.5C 69.3575,163.983 73.3575,163.983 77.5,164.5C 79.1128,165.838 79.6128,167.505 79,169.5C 77.6218,167.787 75.9552,166.453 74,165.5C 71.7781,168.51 72.2781,171.01 75.5,173C 72.9281,174.908 70.4281,174.741 68,172.5C 66.2326,173.34 64.8993,174.673 64,176.5C 63.502,179.482 63.3354,182.482 63.5,185.5C 64.675,185.281 65.675,185.614 66.5,186.5C 65.9653,188.101 64.9653,188.601 63.5,188C 61.9632,186.89 61.2965,185.39 61.5,183.5C 60.1667,183.5 58.8333,183.5 57.5,183.5C 58.2952,187.476 58.9619,191.476 59.5,195.5C 57.8561,195.286 56.3561,195.62 55,196.5C 54.1253,193.785 52.2919,192.452 49.5,192.5C 49.652,196.924 50.3187,201.257 51.5,205.5C 39.5,205.5 27.5,205.5 15.5,205.5C 18.1139,203.873 20.1139,201.539 21.5,198.5C 20.6246,194.393 18.7913,193.727 16,196.5C 15.6667,198.5 15.3333,200.5 15,202.5C 14.6667,202.167 14.3333,201.833 14,201.5C 15.2429,196.357 15.5762,191.023 15,185.5C 13.8099,182.8 11.9766,180.633 9.5,179C 14.0793,178.367 15.9126,175.867 15,171.5C 12.1968,172.813 10.0301,174.813 8.5,177.5C 8.06907,174.715 8.06907,172.048 8.5,169.5C 7.52144,172.953 6.02144,173.286 4,170.5C 3.09216,172.439 1.59216,173.439 -0.5,173.5C -0.5,115.5 -0.5,57.5 -0.5,-0.5 Z"/></g>
<g><path style="opacity:1" fill="#0b192e" d="M 190.5,13.5 C 191.496,13.4142 192.329,13.7476 193,14.5C 191.931,19.6249 193.931,21.2916 199,19.5C 199.49,20.7932 199.657,22.1266 199.5,23.5C 201.167,23.5 202.833,23.5 204.5,23.5C 204.673,20.8205 205.673,18.4872 207.5,16.5C 207.167,15.8333 206.833,15.1667 206.5,14.5C 212.239,15.5716 217.906,15.5716 223.5,14.5C 223.5,16.1667 223.5,17.8333 223.5,19.5C 220.552,20.5502 217.552,20.5502 214.5,19.5C 205.321,21.5657 205.654,23.0657 215.5,24C 212.364,24.315 209.697,25.4816 207.5,27.5C 209.555,28.1872 211.221,29.3539 212.5,31C 210.337,31.2453 208.67,32.2453 207.5,34C 209.832,33.3513 212.166,33.518 214.5,34.5C 215.893,32.3259 215.56,30.4926 213.5,29C 217.089,28.7931 220.589,28.2931 224,27.5C 225.333,30.1667 226.667,30.1667 228,27.5C 231.73,30.5342 231.23,32.0342 226.5,32C 229.044,34.4468 229.044,36.9468 226.5,39.5C 227.981,40.4803 229.315,41.647 230.5,43C 223.77,43.3851 217.603,45.2184 212,48.5C 211.167,48.3333 210.333,48.1667 209.5,48C 209.535,44.6214 211.535,42.6214 215.5,42C 212.883,41.1785 210.216,40.6785 207.5,40.5C 207.244,42.7925 207.577,44.9592 208.5,47C 207.667,47.8333 206.833,48.6667 206,49.5C 203.972,45.0969 204.139,40.9303 206.5,37C 205.833,36.6667 205.167,36.3333 204.5,36C 205.833,35.3333 205.833,34.6667 204.5,34C 200.696,32.9495 196.863,32.1162 193,31.5C 187.055,32.2531 181.221,32.2531 175.5,31.5C 174.145,30.3247 174.312,29.3247 176,28.5C 180.763,29.6397 185.596,29.6397 190.5,28.5C 191.478,28.9767 192.311,29.6433 193,30.5C 194.734,29.7511 196.567,29.2511 198.5,29C 197.366,27.984 197.699,27.3173 199.5,27C 197.167,26.6667 194.833,26.3333 192.5,26C 193.328,25.0853 194.328,24.4186 195.5,24C 194.584,23.6258 193.75,23.1258 193,22.5C 192.626,23.4162 192.126,24.2496 191.5,25C 185.916,25.8056 180.416,25.6389 175,24.5C 172.878,25.2199 172.378,26.3866 173.5,28C 169.494,26.984 165.828,27.8173 162.5,30.5C 162.68,28.3654 162.68,26.1987 162.5,24C 165.762,21.6449 169.429,20.4782 173.5,20.5C 173.202,23.3356 173.869,23.8356 175.5,22C 180.5,21.6667 185.5,21.3333 190.5,21C 191.38,19.6439 191.714,18.1439 191.5,16.5C 186.156,16.666 180.823,16.4994 175.5,16C 180.933,16.1184 185.933,15.2851 190.5,13.5 Z"/></g>
<g><path style="opacity:1" fill="#534839" d="M 57.5,38.5 C 72.6576,37.5038 87.9909,37.1705 103.5,37.5C 106.187,37.3359 108.854,37.5026 111.5,38C 110.263,38.2321 109.263,38.7321 108.5,39.5C 107.833,39.5 107.167,39.5 106.5,39.5C 90.6754,38.5036 74.6754,38.1703 58.5,38.5C 58.1667,38.5 57.8333,38.5 57.5,38.5 Z"/></g>
<g><path style="opacity:1" fill="#9d8f7e" d="M 199.5,37.5 C 200.495,49.3217 200.828,61.3217 200.5,73.5C 199.167,73.5 198.5,72.8333 198.5,71.5C 199.495,60.6794 199.828,49.6794 199.5,38.5C 199.5,38.1667 199.5,37.8333 199.5,37.5 Z"/></g>
<g><path style="opacity:1" fill="#221e1c" d="M 125.5,38.5 C 128.698,37.9644 131.365,38.631 133.5,40.5C 133.167,40.5 132.833,40.5 132.5,40.5C 131.207,39.8418 129.707,39.5085 128,39.5C 123.821,40.0864 119.654,40.7531 115.5,41.5C 107.468,43.3608 99.8013,46.0275 92.5,49.5C 97.9735,45.4299 103.974,42.4299 110.5,40.5C 115.463,39.5742 120.463,38.9075 125.5,38.5 Z"/></g>
<g><path style="opacity:1" fill="#1a1c1e" d="M 148.5,38.5 C 153.584,39.1168 158.584,40.1168 163.5,41.5C 164.5,42.1667 165.5,42.8333 166.5,43.5C 162.849,43.2539 159.349,43.2539 156,43.5C 150.802,39.845 144.969,38.5116 138.5,39.5C 138.768,41.099 138.434,42.4324 137.5,43.5C 137.5,41.8333 137.5,40.1667 137.5,38.5C 141.167,38.5 144.833,38.5 148.5,38.5 Z"/></g>
<g><path style="opacity:1" fill="#121929" d="M 197.5,56.5 C 196.233,54.689 194.9,52.8557 193.5,51C 196.035,50.0718 197.035,48.2385 196.5,45.5C 195.07,45.4208 193.736,45.7542 192.5,46.5C 191.749,45.624 191.249,44.624 191,43.5C 189.192,45.5582 187.025,45.8916 184.5,44.5C 184.33,43.1779 184.663,42.0113 185.5,41C 178.082,39.7106 177.082,41.3773 182.5,46C 183.784,46.6838 184.951,46.5171 186,45.5C 187.811,47.5433 189.978,49.0433 192.5,50C 191.975,50.6924 191.308,51.1924 190.5,51.5C 189.481,50.3128 188.314,49.3128 187,48.5C 186.833,49 186.667,49.5 186.5,50C 188.778,52.1077 190.444,54.6077 191.5,57.5C 188.036,54.5375 184.703,51.3709 181.5,48C 177.931,46.0583 174.598,43.8916 171.5,41.5C 171.389,40.8826 171.056,40.3826 170.5,40C 179.167,39.3333 187.833,39.3333 196.5,40C 197.211,42.7963 197.878,45.6296 198.5,48.5C 197.833,49.8333 197.167,51.1667 196.5,52.5C 197.246,53.7362 197.579,55.0695 197.5,56.5 Z"/></g>
<g><path style="opacity:1" fill="#0e1828" d="M 63.5,39.5 C 75.1714,39.3335 86.8381,39.5001 98.5,40C 96.3645,40.8763 95.0312,42.3763 94.5,44.5C 94.1667,44.5 93.8333,44.5 93.5,44.5C 89.3266,45.5027 85.3266,47.0027 81.5,49C 82.1667,49.3333 82.8333,49.6667 83.5,50C 81.6577,49.932 79.991,50.0986 78.5,50.5C 77.2089,49.4583 77.2089,48.2917 78.5,47C 79.7839,46.3162 80.9505,46.4829 82,47.5C 92.5079,40 91.5079,38.6667 79,43.5C 77.6667,42.8333 76.6667,41.8333 76,40.5C 75.6667,41.1667 75.3333,41.8333 75,42.5C 74.6121,41.572 73.9454,40.9054 73,40.5C 71.1284,41.0682 69.2951,41.7349 67.5,42.5C 66.128,41.5445 64.7947,40.5445 63.5,39.5 Z"/></g>
<g><path style="opacity:1" fill="#0a182b" d="M 166.5,43.5 C 169.706,44.4541 172.706,45.7875 175.5,47.5C 176.957,49.6282 177.957,51.9616 178.5,54.5C 179.978,54.238 181.311,54.5713 182.5,55.5C 184.803,58.6276 187.47,61.2942 190.5,63.5C 191.167,63.5 191.5,63.8333 191.5,64.5C 191.34,66.1992 191.506,67.8659 192,69.5C 193.385,70.5505 194.385,71.8839 195,73.5C 195.498,76.8168 195.665,80.1501 195.5,83.5C 176.12,83.8087 156.787,83.4753 137.5,82.5C 137.5,69.5 137.5,56.5 137.5,43.5C 138.434,42.4324 138.768,41.099 138.5,39.5C 144.969,38.5116 150.802,39.845 156,43.5C 159.349,43.2539 162.849,43.2539 166.5,43.5 Z"/></g>
<g><path style="opacity:1" fill="#585043" d="M 148.5,38.5 C 144.833,38.5 141.167,38.5 137.5,38.5C 137.5,40.1667 137.5,41.8333 137.5,43.5C 137.5,56.5 137.5,69.5 137.5,82.5C 137.5,83.1667 137.5,83.8333 137.5,84.5C 136.833,84.5 136.5,84.1667 136.5,83.5C 136.5,68.5 136.5,53.5 136.5,38.5C 140.5,37.1667 144.5,37.1667 148.5,38.5 Z"/></g>
<g><path style="opacity:1" fill="#191817" d="M 199.5,38.5 C 199.828,49.6794 199.495,60.6794 198.5,71.5C 196.602,66.9347 194.269,62.6013 191.5,58.5C 192.552,58.3505 193.552,58.5172 194.5,59C 198.083,64.5952 199.083,63.7618 197.5,56.5C 197.579,55.0695 197.246,53.7362 196.5,52.5C 197.167,51.1667 197.833,49.8333 198.5,48.5C 197.878,45.6296 197.211,42.7963 196.5,40C 187.833,39.3333 179.167,39.3333 170.5,40C 171.056,40.3826 171.389,40.8826 171.5,41.5C 170.167,41.1667 168.833,40.8333 167.5,40.5C 166.508,40.6716 165.842,40.3382 165.5,39.5C 176.654,38.5052 187.988,38.1719 199.5,38.5 Z"/></g>
<g><path style="opacity:1" fill="#0d182f" d="M 63.5,39.5 C 64.7947,40.5445 66.128,41.5445 67.5,42.5C 69.2951,41.7349 71.1284,41.0682 73,40.5C 73.9454,40.9054 74.6121,41.572 75,42.5C 75.3333,41.8333 75.6667,41.1667 76,40.5C 76.6667,41.8333 77.6667,42.8333 79,43.5C 91.5079,38.6667 92.5079,40 82,47.5C 80.9505,46.4829 79.7839,46.3162 78.5,47C 77.2089,48.2917 77.2089,49.4583 78.5,50.5C 75.0615,52.9206 72.0615,56.4206 69.5,61C 68.3906,63.0466 67.7239,65.2133 67.5,67.5C 64.2206,68.0306 62.8872,70.0306 63.5,73.5C 62.1667,73.5 60.8333,73.5 59.5,73.5C 59.3335,62.495 59.5002,51.495 60,40.5C 61.0113,39.6634 62.1779,39.33 63.5,39.5 Z"/></g>
<g><path style="opacity:1" fill="#0d1831" d="M 197.5,56.5 C 199.083,63.7618 198.083,64.5952 194.5,59C 193.552,58.5172 192.552,58.3505 191.5,58.5C 191.5,58.1667 191.5,57.8333 191.5,57.5C 190.444,54.6077 188.778,52.1077 186.5,50C 186.667,49.5 186.833,49 187,48.5C 188.314,49.3128 189.481,50.3128 190.5,51.5C 191.308,51.1924 191.975,50.6924 192.5,50C 189.978,49.0433 187.811,47.5433 186,45.5C 184.951,46.5171 183.784,46.6838 182.5,46C 177.082,41.3773 178.082,39.7106 185.5,41C 184.663,42.0113 184.33,43.1779 184.5,44.5C 187.025,45.8916 189.192,45.5582 191,43.5C 191.249,44.624 191.749,45.624 192.5,46.5C 193.736,45.7542 195.07,45.4208 196.5,45.5C 197.035,48.2385 196.035,50.0718 193.5,51C 194.9,52.8557 196.233,54.689 197.5,56.5 Z"/></g>
<g><path style="opacity:1" fill="#141418" d="M 54.5,36.5 C 54.5,64.8333 54.5,93.1667 54.5,121.5C 53.8134,110.295 53.1467,98.9616 52.5,87.5C 54.0397,81.9897 53.7064,76.6564 51.5,71.5C 52.3118,69.3768 52.9785,67.2101 53.5,65C 52.6136,59.2026 52.2802,53.3693 52.5,47.5C 53.1667,43.8333 53.8333,40.1667 54.5,36.5 Z"/></g>
<g><path style="opacity:1" fill="#c6b8a4" d="M 106.5,39.5 C 107.167,39.5 107.833,39.5 108.5,39.5C 108.842,40.3382 109.508,40.6716 110.5,40.5C 103.974,42.4299 97.9735,45.4299 92.5,49.5C 90.326,49.7497 88.6594,50.7497 87.5,52.5C 77.2969,59.3674 69.6303,68.3674 64.5,79.5C 64.5,79.8333 64.5,80.1667 64.5,80.5C 62.2057,83.3695 60.8723,86.7029 60.5,90.5C 59.5489,89.0813 59.2155,87.4147 59.5,85.5C 59.5,84.8333 59.5,84.1667 59.5,83.5C 61.7571,77.9245 64.4238,72.5911 67.5,67.5C 74.9533,58.3752 83.6199,50.7085 93.5,44.5C 93.8333,44.5 94.1667,44.5 94.5,44.5C 98.3328,42.4443 102.333,40.7776 106.5,39.5 Z"/></g>
<g><path style="opacity:1" fill="#191d20" d="M 93.5,44.5 C 83.6199,50.7085 74.9533,58.3752 67.5,67.5C 67.7239,65.2133 68.3906,63.0466 69.5,61C 72.0615,56.4206 75.0615,52.9206 78.5,50.5C 79.991,50.0986 81.6577,49.932 83.5,50C 82.8333,49.6667 82.1667,49.3333 81.5,49C 85.3266,47.0027 89.3266,45.5027 93.5,44.5 Z"/></g>
<g><path style="opacity:1" fill="#1a2022" d="M 175.5,47.5 C 181.904,51.5692 186.904,56.9025 190.5,63.5C 187.47,61.2942 184.803,58.6276 182.5,55.5C 181.311,54.5713 179.978,54.238 178.5,54.5C 177.957,51.9616 176.957,49.6282 175.5,47.5 Z"/></g>
<g><path style="opacity:1" fill="#c7bba5" d="M 167.5,40.5 C 168.833,40.8333 170.167,41.1667 171.5,41.5C 174.598,43.8916 177.931,46.0583 181.5,48C 184.703,51.3709 188.036,54.5375 191.5,57.5C 191.5,57.8333 191.5,58.1667 191.5,58.5C 194.269,62.6013 196.602,66.9347 198.5,71.5C 198.5,72.8333 199.167,73.5 200.5,73.5C 199.135,75.5909 198.468,77.9242 198.5,80.5C 197.331,74.6584 194.997,69.3251 191.5,64.5C 191.5,63.8333 191.167,63.5 190.5,63.5C 186.904,56.9025 181.904,51.5692 175.5,47.5C 172.706,45.7875 169.706,44.4541 166.5,43.5C 165.5,42.8333 164.5,42.1667 163.5,41.5C 165.099,41.7678 166.432,41.4345 167.5,40.5 Z"/></g>
<g><path style="opacity:1" fill="#0a192b" d="M 132.5,40.5 C 132.5,42.1667 132.5,43.8333 132.5,45.5C 131.256,43.5988 129.756,41.9322 128,40.5C 122.746,41.7356 117.579,43.2356 112.5,45C 115.356,46.153 118.356,46.9863 121.5,47.5C 122.845,46.6533 123.845,45.4866 124.5,44C 126.259,43.2025 127.926,43.3691 129.5,44.5C 130.641,45.4255 130.641,46.2588 129.5,47C 127.423,47.1922 125.423,47.6922 123.5,48.5C 122.754,49.7362 122.421,51.0695 122.5,52.5C 124.39,52.7035 125.89,52.0368 127,50.5C 127.529,52.5847 127.029,54.418 125.5,56C 127.662,60.2906 127.995,64.7906 126.5,69.5C 123.755,68.0247 121.588,68.6913 120,71.5C 119.506,69.8659 119.34,68.1992 119.5,66.5C 117.088,66.756 115.421,65.756 114.5,63.5C 112.263,66.3023 112.263,68.969 114.5,71.5C 115.324,69.2524 116.324,69.0858 117.5,71C 117.043,71.414 116.709,71.914 116.5,72.5C 119.323,75.7071 118.99,78.5405 115.5,81C 116.032,83.0197 117.365,83.853 119.5,83.5C 120.65,81.4902 121.483,78.8236 122,75.5C 123.458,74.2532 124.958,74.2532 126.5,75.5C 127.636,77.6048 128.636,79.7715 129.5,82C 129.245,83.3261 128.578,84.3261 127.5,85C 128.428,85.3879 129.095,86.0546 129.5,87C 128.251,90.284 128.251,93.784 129.5,97.5C 128.325,97.281 127.325,97.6143 126.5,98.5C 127.491,99.6652 128.491,100.832 129.5,102C 127.206,104.013 127.206,106.18 129.5,108.5C 129.023,109.478 128.357,110.311 127.5,111C 128.772,112.307 129.772,113.807 130.5,115.5C 131.183,115.137 131.85,114.804 132.5,114.5C 132.5,115.5 132.5,116.5 132.5,117.5C 108.247,117.819 83.9141,117.486 59.5,116.5C 59.3583,108.792 59.8583,101.125 61,93.5C 63.226,89.5102 64.3926,85.1768 64.5,80.5C 64.5,80.1667 64.5,79.8333 64.5,79.5C 67.9683,76.544 70.9683,73.2107 73.5,69.5C 73.5,70.5 73.5,71.5 73.5,72.5C 75.9948,73.1989 78.3281,74.1989 80.5,75.5C 79.8617,73.54 79.8617,71.7067 80.5,70C 83.4525,69.1075 86.1192,69.6075 88.5,71.5C 90.5225,69.8267 92.8559,69.1601 95.5,69.5C 95.2436,67.2075 95.5769,65.0408 96.5,63C 93.6239,61.78 91.2905,59.9466 89.5,57.5C 90.7476,55.31 92.4143,54.9766 94.5,56.5C 95.3857,55.675 95.719,54.675 95.5,53.5C 92.8728,52.9084 90.2062,52.5751 87.5,52.5C 88.6594,50.7497 90.326,49.7497 92.5,49.5C 99.8013,46.0275 107.468,43.3608 115.5,41.5C 119.654,40.7531 123.821,40.0864 128,39.5C 129.707,39.5085 131.207,39.8418 132.5,40.5 Z"/></g>
<g><path style="opacity:1" fill="#1b1c1f" d="M 87.5,52.5 C 86.0669,54.5582 85.4003,56.8915 85.5,59.5C 82.1945,60.2852 79.1945,61.7852 76.5,64C 75.7772,66.0183 74.7772,67.8516 73.5,69.5C 70.9683,73.2107 67.9683,76.544 64.5,79.5C 69.6303,68.3674 77.2969,59.3674 87.5,52.5 Z"/></g>
<g><path style="opacity:1" fill="#0a1831" d="M 87.5,52.5 C 90.2062,52.5751 92.8728,52.9084 95.5,53.5C 95.719,54.675 95.3857,55.675 94.5,56.5C 92.4143,54.9766 90.7476,55.31 89.5,57.5C 91.2905,59.9466 93.6239,61.78 96.5,63C 95.5769,65.0408 95.2436,67.2075 95.5,69.5C 92.8559,69.1601 90.5225,69.8267 88.5,71.5C 86.1192,69.6075 83.4525,69.1075 80.5,70C 79.8617,71.7067 79.8617,73.54 80.5,75.5C 78.3281,74.1989 75.9948,73.1989 73.5,72.5C 73.5,71.5 73.5,70.5 73.5,69.5C 74.7772,67.8516 75.7772,66.0183 76.5,64C 79.1945,61.7852 82.1945,60.2852 85.5,59.5C 85.4003,56.8915 86.0669,54.5582 87.5,52.5 Z"/></g>
<g><path style="opacity:1" fill="#d7cdbb" d="M 134.5,38.5 C 135.167,38.5 135.833,38.5 136.5,38.5C 136.5,53.5 136.5,68.5 136.5,83.5C 135.833,83.5 135.167,83.5 134.5,83.5C 134.5,68.5 134.5,53.5 134.5,38.5 Z"/></g>
<g><path style="opacity:1" fill="#211d1b" d="M 202.5,36.5 C 203.244,44.1786 203.911,52.0119 204.5,60C 204.091,73.1101 203.758,86.2768 203.5,99.5C 203.831,105.507 204.165,111.507 204.5,117.5C 204.058,118.739 203.391,119.739 202.5,120.5C 202.5,92.5 202.5,64.5 202.5,36.5 Z"/></g>
<g><path style="opacity:1" fill="#121824" d="M 52.5,47.5 C 52.2802,53.3693 52.6136,59.2026 53.5,65C 52.9785,67.2101 52.3118,69.3768 51.5,71.5C 53.7064,76.6564 54.0397,81.9897 52.5,87.5C 53.1467,98.9616 53.8134,110.295 54.5,121.5C 79.3278,122.498 104.328,122.831 129.5,122.5C 112.675,123.497 95.6749,123.83 78.5,123.5C 72.1999,124.207 65.8666,124.707 59.5,125C 58.6919,125.308 58.0253,125.808 57.5,126.5C 57.337,129.888 57.837,133.221 59,136.5C 61.5978,135.32 63.2645,133.32 64,130.5C 65.8355,132.727 65.3355,134.56 62.5,136C 62.8333,136.333 63.1667,136.667 63.5,137C 62.536,138.725 61.8693,140.559 61.5,142.5C 60.5987,141.71 59.9321,140.71 59.5,139.5C 58.7961,137.656 57.4628,137.156 55.5,138C 54.2979,141.8 52.6313,145.3 50.5,148.5C 50.7541,144.135 50.7541,139.802 50.5,135.5C 51.397,136.598 52.2303,136.598 53,135.5C 53.3333,136.167 53.6667,136.833 54,137.5C 54.8362,133.627 55.6695,129.793 56.5,126C 54.5172,124.886 52.8505,123.386 51.5,121.5C 51.4872,112.46 51.8205,103.127 52.5,93.5C 51.2073,89.6916 51.2073,85.8583 52.5,82C 51.8762,77.8731 50.8762,73.8731 49.5,70C 51.0097,68.6487 52.0097,66.982 52.5,65C 51.2114,59.0247 51.2114,53.1913 52.5,47.5 Z"/></g>
<g><path style="opacity:1" fill="#121319" d="M 132.5,40.5 C 132.833,40.5 133.167,40.5 133.5,40.5C 133.5,58.1667 133.5,75.8333 133.5,93.5C 132.756,80.9924 132.089,68.3257 131.5,55.5C 132.392,52.0969 132.725,48.7635 132.5,45.5C 132.5,43.8333 132.5,42.1667 132.5,40.5 Z"/></g>
<g><path style="opacity:1" fill="#17171a" d="M 58.5,38.5 C 74.6754,38.1703 90.6754,38.5036 106.5,39.5C 102.333,40.7776 98.3328,42.4443 94.5,44.5C 95.0312,42.3763 96.3645,40.8763 98.5,40C 86.8381,39.5001 75.1714,39.3335 63.5,39.5C 62.1779,39.33 61.0113,39.6634 60,40.5C 59.5002,51.495 59.3335,62.495 59.5,73.5C 60.8333,73.5 62.1667,73.5 63.5,73.5C 62.8872,70.0306 64.2206,68.0306 67.5,67.5C 64.4238,72.5911 61.7571,77.9245 59.5,83.5C 58.5039,68.676 58.1706,53.676 58.5,38.5 Z"/></g>
<g><path style="opacity:1" fill="#0d1830" d="M 132.5,45.5 C 132.725,48.7635 132.392,52.0969 131.5,55.5C 132.089,68.3257 132.756,80.9924 133.5,93.5C 133.5,94.5 133.5,95.5 133.5,96.5C 132.51,102.31 132.177,108.31 132.5,114.5C 131.85,114.804 131.183,115.137 130.5,115.5C 129.772,113.807 128.772,112.307 127.5,111C 128.357,110.311 129.023,109.478 129.5,108.5C 127.206,106.18 127.206,104.013 129.5,102C 128.491,100.832 127.491,99.6652 126.5,98.5C 127.325,97.6143 128.325,97.281 129.5,97.5C 128.251,93.784 128.251,90.284 129.5,87C 129.095,86.0546 128.428,85.3879 127.5,85C 128.578,84.3261 129.245,83.3261 129.5,82C 128.636,79.7715 127.636,77.6048 126.5,75.5C 124.958,74.2532 123.458,74.2532 122,75.5C 121.483,78.8236 120.65,81.4902 119.5,83.5C 117.365,83.853 116.032,83.0197 115.5,81C 118.99,78.5405 119.323,75.7071 116.5,72.5C 116.709,71.914 117.043,71.414 117.5,71C 116.324,69.0858 115.324,69.2524 114.5,71.5C 112.263,68.969 112.263,66.3023 114.5,63.5C 115.421,65.756 117.088,66.756 119.5,66.5C 119.34,68.1992 119.506,69.8659 120,71.5C 121.588,68.6913 123.755,68.0247 126.5,69.5C 127.995,64.7906 127.662,60.2906 125.5,56C 127.029,54.418 127.529,52.5847 127,50.5C 125.89,52.0368 124.39,52.7035 122.5,52.5C 122.421,51.0695 122.754,49.7362 123.5,48.5C 125.423,47.6922 127.423,47.1922 129.5,47C 130.641,46.2588 130.641,45.4255 129.5,44.5C 127.926,43.3691 126.259,43.2025 124.5,44C 123.845,45.4866 122.845,46.6533 121.5,47.5C 118.356,46.9863 115.356,46.153 112.5,45C 117.579,43.2356 122.746,41.7356 128,40.5C 129.756,41.9322 131.256,43.5988 132.5,45.5 Z"/></g>
<g><path style="opacity:1" fill="#3e362f" d="M 57.5,38.5 C 57.8333,38.5 58.1667,38.5 58.5,38.5C 58.1706,53.676 58.5039,68.676 59.5,83.5C 59.5,84.1667 59.5,84.8333 59.5,85.5C 58.7784,85.9175 58.2784,86.5842 58,87.5C 57.5001,71.1701 57.3334,54.8367 57.5,38.5 Z"/></g>
<g><path style="opacity:1" fill="#201a13" d="M 191.5,64.5 C 194.997,69.3251 197.331,74.6584 198.5,80.5C 198.5,81.8333 198.5,83.1667 198.5,84.5C 178.167,84.5 157.833,84.5 137.5,84.5C 137.5,83.8333 137.5,83.1667 137.5,82.5C 156.787,83.4753 176.12,83.8087 195.5,83.5C 195.665,80.1501 195.498,76.8168 195,73.5C 194.385,71.8839 193.385,70.5505 192,69.5C 191.506,67.8659 191.34,66.1992 191.5,64.5 Z"/></g>
<g><path style="opacity:1" fill="#d1bea0" d="M 108.5,35.5 C 140.004,35.1685 171.338,35.5018 202.5,36.5C 202.5,64.5 202.5,92.5 202.5,120.5C 202.5,120.833 202.5,121.167 202.5,121.5C 179.833,121.5 157.167,121.5 134.5,121.5C 134.167,120.833 133.833,120.167 133.5,119.5C 134.495,107.678 134.828,95.6783 134.5,83.5C 135.167,83.5 135.833,83.5 136.5,83.5C 136.5,84.1667 136.833,84.5 137.5,84.5C 157.833,84.5 178.167,84.5 198.5,84.5C 198.5,83.1667 198.5,81.8333 198.5,80.5C 198.468,77.9242 199.135,75.5909 200.5,73.5C 200.828,61.3217 200.495,49.3217 199.5,37.5C 186.496,37.3334 173.496,37.5001 160.5,38C 162.154,38.6077 163.821,39.1077 165.5,39.5C 165.842,40.3382 166.508,40.6716 167.5,40.5C 166.432,41.4345 165.099,41.7678 163.5,41.5C 158.584,40.1168 153.584,39.1168 148.5,38.5C 144.5,37.1667 140.5,37.1667 136.5,38.5C 135.833,38.5 135.167,38.5 134.5,38.5C 131.5,37.1667 128.5,37.1667 125.5,38.5C 120.463,38.9075 115.463,39.5742 110.5,40.5C 109.508,40.6716 108.842,40.3382 108.5,39.5C 109.263,38.7321 110.263,38.2321 111.5,38C 108.854,37.5026 106.187,37.3359 103.5,37.5C 105.167,36.8333 106.833,36.1667 108.5,35.5 Z"/></g>
<g><path style="opacity:1" fill="#534a3c" d="M 199.5,37.5 C 199.5,37.8333 199.5,38.1667 199.5,38.5C 187.988,38.1719 176.654,38.5052 165.5,39.5C 163.821,39.1077 162.154,38.6077 160.5,38C 173.496,37.5001 186.496,37.3334 199.5,37.5 Z"/></g>
<g><path style="opacity:1" fill="#0b182c" d="M 255.5,56.5 C 255.5,106.167 255.5,155.833 255.5,205.5C 187.5,205.5 119.5,205.5 51.5,205.5C 50.3187,201.257 49.652,196.924 49.5,192.5C 52.2919,192.452 54.1253,193.785 55,196.5C 56.3561,195.62 57.8561,195.286 59.5,195.5C 61.8845,195.557 64.2178,195.223 66.5,194.5C 68.5318,195.551 69.8652,197.217 70.5,199.5C 71.2508,198.624 71.7508,197.624 72,196.5C 72.8333,197.333 73.6667,198.167 74.5,199C 72.9338,201.677 73.6005,203.01 76.5,203C 77.0897,201.491 77.7564,199.991 78.5,198.5C 79.086,198.709 79.586,199.043 80,199.5C 82.4062,197.017 84.5729,194.35 86.5,191.5C 82.9879,190.289 79.4879,189.289 76,188.5C 73.9743,189.52 72.6409,191.187 72,193.5C 71.5026,190.854 71.3359,188.187 71.5,185.5C 66.25,185.667 65.25,183.667 68.5,179.5C 72.0369,179.218 75.7036,179.218 79.5,179.5C 79.5,178.5 79.5,177.5 79.5,176.5C 76.4017,176.587 76.0684,176.087 78.5,175C 77.6433,174.311 76.9767,173.478 76.5,172.5C 80.3671,171.9 83.7004,170.233 86.5,167.5C 87.7914,166.473 87.7914,165.473 86.5,164.5C 89.872,163.551 93.2053,163.551 96.5,164.5C 98.0255,164.006 99.3588,163.339 100.5,162.5C 101.167,162.5 101.5,162.167 101.5,161.5C 104.441,158.593 106.107,159.26 106.5,163.5C 112.18,166.527 118.18,168.527 124.5,169.5C 123.163,170.315 122.163,171.482 121.5,173C 126.018,173.065 130.351,173.731 134.5,175C 133.975,175.692 133.308,176.192 132.5,176.5C 130.929,175.691 129.262,175.357 127.5,175.5C 127.261,177.467 127.594,179.301 128.5,181C 130.9,181.186 133.234,181.686 135.5,182.5C 136.053,184.727 136.053,187.061 135.5,189.5C 141.831,189.006 142.831,186.506 138.5,182C 140.5,181.667 142.5,181.333 144.5,181C 143.62,179.644 143.286,178.144 143.5,176.5C 145.199,176.66 146.866,176.494 148.5,176C 149.711,175.107 149.711,174.274 148.5,173.5C 147.131,175.124 145.464,175.624 143.5,175C 143.833,174.667 144.167,174.333 144.5,174C 141.5,173.667 138.5,173.333 135.5,173C 134.833,172.333 134.167,171.667 133.5,171C 136.997,170.58 140.664,171.08 144.5,172.5C 145.228,170.807 146.228,169.307 147.5,168C 151.188,168.454 154.855,168.287 158.5,167.5C 158.192,166.692 157.692,166.025 157,165.5C 153.828,166.688 150.661,166.355 147.5,164.5C 146.404,162.487 146.737,160.654 148.5,159C 147.586,157.594 146.92,156.094 146.5,154.5C 147.75,154.577 148.583,155.244 149,156.5C 149.236,158.764 149.736,160.931 150.5,163C 154.027,163.808 157.36,163.641 160.5,162.5C 161.5,162.5 162.5,162.5 163.5,162.5C 164.458,162.953 165.292,163.619 166,164.5C 167.667,163.267 169.167,161.933 170.5,160.5C 171.514,161.765 173.014,162.431 175,162.5C 176.5,162.167 178,161.833 179.5,161.5C 179.376,160.893 179.043,160.56 178.5,160.5C 178.167,160.5 177.833,160.5 177.5,160.5C 177.335,157.482 177.502,154.482 178,151.5C 180.124,150.773 182.291,150.106 184.5,149.5C 185.489,153.107 185.823,156.774 185.5,160.5C 184.957,160.56 184.624,160.893 184.5,161.5C 185.689,162.429 187.022,162.762 188.5,162.5C 196.002,163.304 203.669,163.97 211.5,164.5C 214.774,164.696 217.441,163.529 219.5,161C 218.234,160.691 217.067,160.191 216,159.5C 216.102,155.044 215.268,151.044 213.5,147.5C 209.866,144.842 206.199,144.842 202.5,147.5C 201.482,146.807 200.482,146.141 199.5,145.5C 198.082,143.692 196.082,143.025 193.5,143.5C 193.611,142.883 193.944,142.383 194.5,142C 192.751,140.708 190.918,139.542 189,138.5C 188.493,137.004 188.993,135.837 190.5,135C 189.833,133.667 188.833,132.667 187.5,132C 190.793,131.745 191.96,130.245 191,127.5C 191.75,126.874 192.584,126.374 193.5,126C 192.619,125.292 191.953,124.458 191.5,123.5C 195.042,123.813 198.375,123.479 201.5,122.5C 202.167,122.5 202.5,122.167 202.5,121.5C 202.5,121.167 202.5,120.833 202.5,120.5C 203.391,119.739 204.058,118.739 204.5,117.5C 204.165,111.507 203.831,105.507 203.5,99.5C 205.17,99.7512 206.67,100.418 208,101.5C 207.989,104.437 208.155,107.27 208.5,110C 205.787,112.904 205.954,116.07 209,119.5C 209.689,118.643 210.522,117.977 211.5,117.5C 213.173,119.086 215.173,119.753 217.5,119.5C 217.716,117.319 216.883,115.653 215,114.5C 213.132,115.672 211.298,115.505 209.5,114C 211.004,112.509 211.837,110.676 212,108.5C 213.011,107.663 214.178,107.33 215.5,107.5C 215.5,109.5 215.5,111.5 215.5,113.5C 218.199,113.466 220.699,114.133 223,115.5C 224.771,114.696 226.271,113.529 227.5,112C 226.14,110.062 226.473,108.396 228.5,107C 232.17,106.452 235.837,105.952 239.5,105.5C 239.5,106.5 239.5,107.5 239.5,108.5C 236.951,109.509 234.285,110.342 231.5,111C 232.641,111.741 232.641,112.575 231.5,113.5C 233.952,115.393 236.619,116.726 239.5,117.5C 239.5,118.833 239.5,120.167 239.5,121.5C 234.371,122.614 234.371,123.281 239.5,123.5C 239.5,124.5 239.5,125.5 239.5,126.5C 237.61,126.703 236.11,126.037 235,124.5C 234.517,125.448 234.351,126.448 234.5,127.5C 235.873,127.343 237.207,127.51 238.5,128C 237.324,129.674 235.99,131.174 234.5,132.5C 235.682,134.645 237.182,134.645 239,132.5C 239.883,135.887 242.049,137.554 245.5,137.5C 245.906,133.312 244.406,129.979 241,127.5C 240.503,124.854 240.336,122.187 240.5,119.5C 242.833,118.833 245.167,118.167 247.5,117.5C 247.433,115.599 247.767,113.766 248.5,112C 247.312,103.95 245.478,104.117 243,112.5C 241.989,113.337 240.822,113.67 239.5,113.5C 239.333,116.957 238.333,117.29 236.5,114.5C 238.273,111.94 240.273,109.607 242.5,107.5C 243.246,106.264 243.579,104.93 243.5,103.5C 240.482,103.665 237.482,103.498 234.5,103C 236.815,99.9205 238.482,99.7539 239.5,102.5C 240.167,102.167 240.833,101.833 241.5,101.5C 242.167,96.1667 242.833,90.8333 243.5,85.5C 246.889,87.4895 250.556,87.9895 254.5,87C 253.703,83.2546 253.203,79.4213 253,75.5C 252.667,75.1667 252.333,74.8333 252,74.5C 250.834,75.8335 250.667,77.5002 251.5,79.5C 250.338,87.0599 249.005,86.7265 247.5,78.5C 249.256,76.8087 249.756,74.8087 249,72.5C 247.984,71.3659 247.317,71.6992 247,73.5C 244.865,71.7215 242.365,71.0548 239.5,71.5C 239.392,76.1366 238.392,76.47 236.5,72.5C 238.585,70.1642 238.751,67.8309 237,65.5C 235.983,67.3759 235.149,69.3759 234.5,71.5C 233.167,68.8333 231.833,66.1667 230.5,63.5C 227.929,62.2723 226.595,60.2723 226.5,57.5C 228.199,57.3398 229.866,57.5065 231.5,58C 235.27,60.3736 239.27,62.3736 243.5,64C 242.437,65.1882 241.103,65.6882 239.5,65.5C 239.5,66.8333 239.5,68.1667 239.5,69.5C 243.862,69.6345 247.862,68.6345 251.5,66.5C 251.833,64.5 252.167,62.5 252.5,60.5C 250.61,60.2965 249.11,60.9632 248,62.5C 247.56,60.9238 246.727,59.5904 245.5,58.5C 248.406,55.5276 251.74,54.861 255.5,56.5 Z"/></g>
<g><path style="opacity:1" fill="#1f1709" d="M 137.5,87.5 C 138.873,87.3433 140.207,87.51 141.5,88C 140.29,89.0391 139.29,90.2058 138.5,91.5C 137.566,90.4324 137.232,89.099 137.5,87.5 Z"/></g>
<g><path style="opacity:1" fill="#926f49" d="M 157.5,86.5 C 158.5,86.5 159.5,86.5 160.5,86.5C 160.193,89.962 159.193,89.962 157.5,86.5 Z"/></g>
<g><path style="opacity:1" fill="#211a17" d="M 197.5,97.5 C 196.256,100.982 194.256,103.982 191.5,106.5C 191.392,104.486 192.058,102.82 193.5,101.5C 196.16,97.6839 196.827,93.5172 195.5,89C 186.024,88.4552 176.358,88.4552 166.5,89C 165.309,89.6979 164.309,90.5313 163.5,91.5C 163.5,90.1667 163.5,88.8333 163.5,87.5C 175.167,87.5 186.833,87.5 198.5,87.5C 198.384,90.8599 198.051,94.1933 197.5,97.5 Z"/></g>
<g><path style="opacity:1" fill="#665937" d="M 137.5,87.5 C 137.232,89.099 137.566,90.4324 138.5,91.5C 138.217,92.2891 137.717,92.9558 137,93.5C 136.211,91.2884 136.378,89.2884 137.5,87.5 Z"/></g>
<g><path style="opacity:1" fill="#0e1828" d="M 193.5,101.5 C 193.5,100.167 193.5,98.8333 193.5,97.5C 190.359,99.2862 187.692,98.7862 185.5,96C 188.322,93.7244 191.322,92.7244 194.5,93C 195.993,91.8438 195.826,91.0104 194,90.5C 191.024,91.5203 188.357,91.5203 186,90.5C 185.333,93.1667 184.667,93.1667 184,90.5C 183.333,93.1667 182.667,93.1667 182,90.5C 181.667,91.1667 181.333,91.8333 181,92.5C 178.258,90.4424 175.091,89.4424 171.5,89.5C 171.528,92.2514 172.528,94.5847 174.5,96.5C 173.415,99.773 173.248,103.106 174,106.5C 175.974,104.348 177.807,104.681 179.5,107.5C 177.867,109.581 176.201,111.747 174.5,114C 175.793,114.49 177.127,114.657 178.5,114.5C 174.532,116.514 170.365,116.848 166,115.5C 164.63,109.258 164.13,102.925 164.5,96.5C 166.095,102.399 166.928,108.399 167,114.5C 169.21,115.749 171.376,115.582 173.5,114C 172.636,112.863 171.636,111.53 170.5,110C 171.167,108.333 171.833,106.667 172.5,105C 171.848,101.234 170.514,97.7339 168.5,94.5C 169.534,91.9428 168.534,90.6095 165.5,90.5C 165.737,91.791 165.404,92.791 164.5,93.5C 164.167,93.5 163.833,93.5 163.5,93.5C 163.5,92.8333 163.5,92.1667 163.5,91.5C 164.309,90.5313 165.309,89.6979 166.5,89C 176.358,88.4552 186.024,88.4552 195.5,89C 196.827,93.5172 196.16,97.6839 193.5,101.5 Z"/></g>
<g><path style="opacity:1" fill="#10191f" d="M 145.5,89.5 C 146.833,89.5 148.167,89.5 149.5,89.5C 149.5,91.8333 149.5,94.1667 149.5,96.5C 142.055,97.744 140.388,95.744 144.5,90.5C 144.5,89.8333 144.833,89.5 145.5,89.5 Z"/></g>
<g><path style="opacity:1" fill="#18191d" d="M 154.5,89.5 C 158.573,90.587 160.239,93.2536 159.5,97.5C 157.167,97.5 154.833,97.5 152.5,97.5C 151.964,94.3019 152.631,91.6353 154.5,89.5 Z"/></g>
<g><path style="opacity:1" fill="#0b1830" d="M 164.5,96.5 C 164.5,95.5 164.5,94.5 164.5,93.5C 165.404,92.791 165.737,91.791 165.5,90.5C 168.534,90.6095 169.534,91.9428 168.5,94.5C 170.514,97.7339 171.848,101.234 172.5,105C 171.833,106.667 171.167,108.333 170.5,110C 171.636,111.53 172.636,112.863 173.5,114C 171.376,115.582 169.21,115.749 167,114.5C 166.928,108.399 166.095,102.399 164.5,96.5 Z"/></g>
<g><path style="opacity:1" fill="#0c1830" d="M 193.5,101.5 C 192.058,102.82 191.392,104.486 191.5,106.5C 191.167,107.5 190.5,108.167 189.5,108.5C 188.022,108.238 186.689,108.571 185.5,109.5C 183.71,111.961 181.377,113.627 178.5,114.5C 177.127,114.657 175.793,114.49 174.5,114C 176.201,111.747 177.867,109.581 179.5,107.5C 177.807,104.681 175.974,104.348 174,106.5C 173.248,103.106 173.415,99.773 174.5,96.5C 172.528,94.5847 171.528,92.2514 171.5,89.5C 175.091,89.4424 178.258,90.4424 181,92.5C 181.333,91.8333 181.667,91.1667 182,90.5C 182.667,93.1667 183.333,93.1667 184,90.5C 184.667,93.1667 185.333,93.1667 186,90.5C 188.357,91.5203 191.024,91.5203 194,90.5C 195.826,91.0104 195.993,91.8438 194.5,93C 191.322,92.7244 188.322,93.7244 185.5,96C 187.692,98.7862 190.359,99.2862 193.5,97.5C 193.5,98.8333 193.5,100.167 193.5,101.5 Z"/></g>
<g><path style="opacity:1" fill="#251f1a" d="M 145.5,89.5 C 147.167,88.1667 148.833,88.1667 150.5,89.5C 150.5,92.1667 150.5,94.8333 150.5,97.5C 146.5,97.5 142.5,97.5 138.5,97.5C 139.092,93.9111 141.092,91.5778 144.5,90.5C 140.388,95.744 142.055,97.744 149.5,96.5C 149.5,94.1667 149.5,91.8333 149.5,89.5C 148.167,89.5 146.833,89.5 145.5,89.5 Z"/></g>
<g><path style="opacity:1" fill="#6f675c" d="M 55.5,35.5 C 55.5,64.1667 55.5,92.8333 55.5,121.5C 81.8333,121.5 108.167,121.5 134.5,121.5C 157.167,121.5 179.833,121.5 202.5,121.5C 202.5,122.167 202.167,122.5 201.5,122.5C 178.167,122.5 154.833,122.5 131.5,122.5C 130.833,122.5 130.167,122.5 129.5,122.5C 104.328,122.831 79.3278,122.498 54.5,121.5C 54.5,93.1667 54.5,64.8333 54.5,36.5C 54.5,35.8333 54.8333,35.5 55.5,35.5 Z"/></g>
<g><path style="opacity:1" fill="#b2a492" d="M 154.5,89.5 C 152.631,91.6353 151.964,94.3019 152.5,97.5C 154.833,97.5 157.167,97.5 159.5,97.5C 157.708,98.3091 155.708,98.8091 153.5,99C 156.036,99.1862 158.369,99.6862 160.5,100.5C 160.167,100.5 159.833,100.5 159.5,100.5C 152.5,100.5 145.5,100.5 138.5,100.5C 138.5,101.833 138.5,103.167 138.5,104.5C 137.828,102.002 137.828,99.6687 138.5,97.5C 142.5,97.5 146.5,97.5 150.5,97.5C 150.5,94.8333 150.5,92.1667 150.5,89.5C 151.961,88.3143 153.295,88.3143 154.5,89.5 Z"/></g>
<g><path style="opacity:1" fill="#1b1a1f" d="M 159.5,100.5 C 159.5,103.167 159.5,105.833 159.5,108.5C 158.835,106.631 158.169,104.631 157.5,102.5C 156.833,102.167 156.167,101.833 155.5,101.5C 150.89,102.493 146.223,103.16 141.5,103.5C 141.34,105.199 141.506,106.866 142,108.5C 144.299,110.728 146.466,113.061 148.5,115.5C 143.094,113.759 139.761,110.093 138.5,104.5C 138.5,103.167 138.5,101.833 138.5,100.5C 145.5,100.5 152.5,100.5 159.5,100.5 Z"/></g>
<g><path style="opacity:1" fill="#1c1916" d="M 163.5,93.5 C 163.833,93.5 164.167,93.5 164.5,93.5C 164.5,94.5 164.5,95.5 164.5,96.5C 164.13,102.925 164.63,109.258 166,115.5C 170.365,116.848 174.532,116.514 178.5,114.5C 181.377,113.627 183.71,111.961 185.5,109.5C 186.689,108.571 188.022,108.238 189.5,108.5C 187.208,111.305 184.541,113.638 181.5,115.5C 175.728,117.775 169.728,118.775 163.5,118.5C 163.5,110.167 163.5,101.833 163.5,93.5 Z"/></g>
<g><path style="opacity:1" fill="#231f18" d="M 198.5,100.5 C 199.49,106.31 199.823,112.31 199.5,118.5C 193.013,119.654 186.346,119.821 179.5,119C 181.066,118.392 182.4,117.558 183.5,116.5C 184.167,116.5 184.833,116.5 185.5,116.5C 189.298,117.483 193.298,117.817 197.5,117.5C 197.665,114.15 197.498,110.817 197,107.5C 196.184,108.823 195.017,109.489 193.5,109.5C 195.167,106.833 196.833,104.167 198.5,101.5C 198.5,101.167 198.5,100.833 198.5,100.5 Z"/></g>
<g><path style="opacity:1" fill="#0d182e" d="M 159.5,108.5 C 159.5,111.5 159.5,114.5 159.5,117.5C 155.833,116.833 152.167,116.167 148.5,115.5C 146.466,113.061 144.299,110.728 142,108.5C 141.506,106.866 141.34,105.199 141.5,103.5C 146.223,103.16 150.89,102.493 155.5,101.5C 156.167,101.833 156.833,102.167 157.5,102.5C 158.169,104.631 158.835,106.631 159.5,108.5 Z"/></g>
<g><path style="opacity:1" fill="#cbb9a9" d="M 197.5,97.5 C 197.232,99.099 197.566,100.432 198.5,101.5C 196.833,104.167 195.167,106.833 193.5,109.5C 190.808,111.862 188.141,114.196 185.5,116.5C 184.833,116.5 184.167,116.5 183.5,116.5C 182.508,116.672 181.842,116.338 181.5,115.5C 184.541,113.638 187.208,111.305 189.5,108.5C 190.5,108.167 191.167,107.5 191.5,106.5C 194.256,103.982 196.256,100.982 197.5,97.5 Z"/></g>
<g><path style="opacity:1" fill="#181c1a" d="M 138.5,111.5 C 139.93,113.386 141.597,115.053 143.5,116.5C 141.858,118.081 139.858,118.747 137.5,118.5C 137.198,115.941 137.532,113.607 138.5,111.5 Z"/></g>
<g><path style="opacity:1" fill="#3f3221" d="M 159.5,100.5 C 159.833,100.5 160.167,100.5 160.5,100.5C 160.5,106.5 160.5,112.5 160.5,118.5C 156.018,118.966 152.018,117.966 148.5,115.5C 152.167,116.167 155.833,116.833 159.5,117.5C 159.5,114.5 159.5,111.5 159.5,108.5C 159.5,105.833 159.5,103.167 159.5,100.5 Z"/></g>
<g><path style="opacity:1" fill="#121926" d="M 185.5,116.5 C 188.141,114.196 190.808,111.862 193.5,109.5C 195.017,109.489 196.184,108.823 197,107.5C 197.498,110.817 197.665,114.15 197.5,117.5C 193.298,117.817 189.298,117.483 185.5,116.5 Z"/></g>
<g><path style="opacity:1" fill="#181719" d="M 64.5,80.5 C 64.3926,85.1768 63.226,89.5102 61,93.5C 59.8583,101.125 59.3583,108.792 59.5,116.5C 83.9141,117.486 108.247,117.819 132.5,117.5C 132.5,116.5 132.5,115.5 132.5,114.5C 132.177,108.31 132.51,102.31 133.5,96.5C 133.5,103.833 133.5,111.167 133.5,118.5C 108.5,118.5 83.5,118.5 58.5,118.5C 58.5,112.5 58.5,106.5 58.5,100.5C 58.5465,97.0314 59.2132,93.698 60.5,90.5C 60.8723,86.7029 62.2057,83.3695 64.5,80.5 Z"/></g>
<g><path style="opacity:1" fill="#9b927a" d="M 199.5,118.5 C 199.823,112.31 199.49,106.31 198.5,100.5C 198.783,99.7109 199.283,99.0442 200,98.5C 200.821,105.346 200.654,112.013 199.5,118.5 Z"/></g>
<g><path style="opacity:1" fill="#463e34" d="M 125.5,38.5 C 128.5,37.1667 131.5,37.1667 134.5,38.5C 134.5,53.5 134.5,68.5 134.5,83.5C 134.828,95.6783 134.495,107.678 133.5,119.5C 108.167,119.5 82.8333,119.5 57.5,119.5C 57.1765,112.978 57.5098,106.645 58.5,100.5C 58.5,106.5 58.5,112.5 58.5,118.5C 83.5,118.5 108.5,118.5 133.5,118.5C 133.5,111.167 133.5,103.833 133.5,96.5C 133.5,95.5 133.5,94.5 133.5,93.5C 133.5,75.8333 133.5,58.1667 133.5,40.5C 131.365,38.631 128.698,37.9644 125.5,38.5 Z"/></g>
<g><path style="opacity:1" fill="#473b29" d="M 138.5,111.5 C 137.532,113.607 137.198,115.941 137.5,118.5C 139.858,118.747 141.858,118.081 143.5,116.5C 145.14,117.32 146.807,118.153 148.5,119C 144.514,119.499 140.514,119.666 136.5,119.5C 136.335,116.15 136.502,112.817 137,109.5C 137.717,110.044 138.217,110.711 138.5,111.5 Z"/></g>
<g><path style="opacity:1" fill="#d2c5ad" d="M 55.5,35.5 C 73.1667,35.5 90.8333,35.5 108.5,35.5C 106.833,36.1667 105.167,36.8333 103.5,37.5C 87.9909,37.1705 72.6576,37.5038 57.5,38.5C 57.3334,54.8367 57.5001,71.1701 58,87.5C 58.2784,86.5842 58.7784,85.9175 59.5,85.5C 59.2155,87.4147 59.5489,89.0813 60.5,90.5C 59.2132,93.698 58.5465,97.0314 58.5,100.5C 57.5098,106.645 57.1765,112.978 57.5,119.5C 82.8333,119.5 108.167,119.5 133.5,119.5C 133.833,120.167 134.167,120.833 134.5,121.5C 108.167,121.5 81.8333,121.5 55.5,121.5C 55.5,92.8333 55.5,64.1667 55.5,35.5 Z"/></g>
<g><path style="opacity:1" fill="#16161c" d="M 131.5,122.5 C 154.833,122.5 178.167,122.5 201.5,122.5C 198.375,123.479 195.042,123.813 191.5,123.5C 175.402,124.378 159.402,124.711 143.5,124.5C 141.686,124.772 139.686,124.939 137.5,125C 136.874,125.75 136.374,126.584 136,127.5C 134.366,125.938 132.866,124.271 131.5,122.5 Z"/></g>
<g><path style="opacity:1" fill="#0a1831" d="M 196.5,125.5 C 199.345,125.988 202.511,125.988 206,125.5C 211.777,127.223 211.944,129.39 206.5,132C 206.613,133.28 207.28,134.113 208.5,134.5C 214.139,131.169 219.139,131.836 223.5,136.5C 220.634,137.208 217.8,137.875 215,138.5C 213.442,137.655 212.442,138.321 212,140.5C 210.497,136.19 208.83,135.856 207,139.5C 206.128,137.387 204.628,136.054 202.5,135.5C 199.892,136.441 197.892,138.108 196.5,140.5C 195.443,137.542 193.777,135.042 191.5,133C 193.624,130.769 195.291,128.269 196.5,125.5 Z"/></g>
<g><path style="opacity:1" fill="#0b1831" d="M 52.5,93.5 C 51.8205,103.127 51.4872,112.46 51.5,121.5C 52.8505,123.386 54.5172,124.886 56.5,126C 55.6695,129.793 54.8362,133.627 54,137.5C 53.6667,136.833 53.3333,136.167 53,135.5C 52.2303,136.598 51.397,136.598 50.5,135.5C 49.6942,136.997 49.0276,138.664 48.5,140.5C 49.4279,141.768 49.5946,143.101 49,144.5C 48.586,144.043 48.086,143.709 47.5,143.5C 42.3876,145.217 37.0543,146.05 31.5,146C 32.1667,146.333 32.8333,146.667 33.5,147C 29.4055,149.668 29.9055,151.168 35,151.5C 38.6102,149.958 42.4436,149.292 46.5,149.5C 46.5,148.5 46.5,147.5 46.5,146.5C 47.5,146.5 48.5,146.5 49.5,146.5C 47.4328,149.789 46.0995,153.456 45.5,157.5C 43.8983,158.55 43.065,157.883 43,155.5C 41.2605,156.894 39.2605,157.561 37,157.5C 34.4719,156.435 32.1385,155.768 30,155.5C 28.8436,151.582 28.3436,147.582 28.5,143.5C 32.8784,143.629 37.0451,143.629 41,143.5C 41.9789,139.577 41.4789,135.91 39.5,132.5C 40.8532,131.476 41.5198,130.143 41.5,128.5C 37.7238,128.531 37.5571,127.864 41,126.5C 42.7659,127.233 44.5992,127.567 46.5,127.5C 46.5,128.5 46.5,129.5 46.5,130.5C 47.5,130.5 48.5,130.5 49.5,130.5C 49.3573,128.738 49.6906,127.071 50.5,125.5C 49.7515,123.668 48.7515,122.001 47.5,120.5C 48.7055,118.207 49.3722,115.707 49.5,113C 48.8583,106.957 49.0249,100.79 50,94.5C 50.6708,93.7476 51.5041,93.4142 52.5,93.5 Z"/></g>
<g><path style="opacity:1" fill="#0c1830" d="M 78.5,123.5 C 73.9325,125.285 68.9325,126.118 63.5,126C 65.2652,127.298 67.0986,128.464 69,129.5C 72,126.833 75,126.833 78,129.5C 78.9503,128.978 79.7836,128.311 80.5,127.5C 81.548,128.383 82.7147,129.05 84,129.5C 85.3685,128.297 86.8685,127.297 88.5,126.5C 88.9976,129.252 90.1643,131.585 92,133.5C 92.5,133.167 93,132.833 93.5,132.5C 93.277,131.033 92.9437,129.533 92.5,128C 93.3279,127.085 94.3279,126.419 95.5,126C 92.5,125.667 89.5,125.333 86.5,125C 94.5,124.333 102.5,124.333 110.5,125C 106.5,125.333 102.5,125.667 98.5,126C 99.3366,127.011 99.67,128.178 99.5,129.5C 97.2841,129.275 95.6174,130.108 94.5,132C 95.1079,132.87 95.9412,133.37 97,133.5C 99.0194,131.812 100.686,129.812 102,127.5C 102.333,127.833 102.667,128.167 103,128.5C 104.95,126.197 107.283,125.864 110,127.5C 111.225,127.138 112.391,126.638 113.5,126C 118.004,125.66 122.337,125.493 126.5,125.5C 126.833,125.667 127.167,125.833 127.5,126C 125.561,126.908 124.561,128.408 124.5,130.5C 125.5,130.5 126.5,130.5 127.5,130.5C 127.895,126.698 128.895,126.531 130.5,130C 128.62,135.494 124.953,136.994 119.5,134.5C 119.351,133.448 119.517,132.448 120,131.5C 120.654,132.696 121.154,132.696 121.5,131.5C 119.809,129.744 117.809,129.244 115.5,130C 114.167,130.667 114.167,131.333 115.5,132C 113.579,132.36 111.912,133.194 110.5,134.5C 109.5,134 108.5,133.5 107.5,133C 108.604,131.869 108.271,131.035 106.5,130.5C 104.954,131.212 103.954,132.378 103.5,134C 104.856,135.567 105.523,137.4 105.5,139.5C 103.678,139.169 102.011,138.502 100.5,137.5C 97.2822,134.925 93.9488,134.925 90.5,137.5C 87.2326,136.465 84.7326,134.465 83,131.5C 79.4661,134.201 76.1328,133.867 73,130.5C 72.3333,132.167 72.3333,133.833 73,135.5C 75.099,136.466 76.9324,137.8 78.5,139.5C 80.8472,135.564 83.8472,135.731 87.5,140C 85.9301,141.678 84.2635,143.178 82.5,144.5C 82.5,144.833 82.5,145.167 82.5,145.5C 79.0204,144.544 75.3538,144.544 71.5,145.5C 71.8333,146.167 72.1667,146.833 72.5,147.5C 73.6086,149.554 74.6086,151.721 75.5,154C 74.3746,155.963 73.0413,157.796 71.5,159.5C 67.9102,157.183 66.5769,153.849 67.5,149.5C 66.5,149.5 65.5,149.5 64.5,149.5C 65.0209,146.364 64.0209,144.03 61.5,142.5C 61.8693,140.559 62.536,138.725 63.5,137C 63.1667,136.667 62.8333,136.333 62.5,136C 65.3355,134.56 65.8355,132.727 64,130.5C 63.2645,133.32 61.5978,135.32 59,136.5C 57.837,133.221 57.337,129.888 57.5,126.5C 58.0253,125.808 58.6919,125.308 59.5,125C 65.8666,124.707 72.1999,124.207 78.5,123.5 Z"/></g>
<g><path style="opacity:1" fill="#0c1831" d="M 191.5,123.5 C 191.953,124.458 192.619,125.292 193.5,126C 192.584,126.374 191.75,126.874 191,127.5C 191.96,130.245 190.793,131.745 187.5,132C 188.833,132.667 189.833,133.667 190.5,135C 188.993,135.837 188.493,137.004 189,138.5C 190.918,139.542 192.751,140.708 194.5,142C 193.944,142.383 193.611,142.883 193.5,143.5C 192.833,143.5 192.167,143.5 191.5,143.5C 190.122,142.766 188.622,142.099 187,141.5C 183.214,142.795 179.38,142.795 175.5,141.5C 176.277,139.461 177.443,138.795 179,139.5C 179.589,137.137 181.089,136.137 183.5,136.5C 184.165,133.112 183.165,132.112 180.5,133.5C 178.971,133.471 177.804,132.804 177,131.5C 176.214,134.583 174.381,136.749 171.5,138C 172.293,139.085 172.96,140.252 173.5,141.5C 171.712,142.283 170.712,143.616 170.5,145.5C 169.833,145.5 169.167,145.5 168.5,145.5C 166.375,142.231 166.708,139.065 169.5,136C 167.402,135.986 165.569,136.153 164,136.5C 160.795,133.727 158.295,134.393 156.5,138.5C 155.575,137.359 154.741,137.359 154,138.5C 152.824,134.349 149.991,132.349 145.5,132.5C 145.921,129.725 145.254,127.058 143.5,124.5C 159.402,124.711 175.402,124.378 191.5,123.5 Z"/></g>
<g><path style="opacity:1" fill="#111a2a" d="M 129.5,122.5 C 130.167,122.5 130.833,122.5 131.5,122.5C 132.866,124.271 134.366,125.938 136,127.5C 136.374,126.584 136.874,125.75 137.5,125C 139.686,124.939 141.686,124.772 143.5,124.5C 145.254,127.058 145.921,129.725 145.5,132.5C 149.991,132.349 152.824,134.349 154,138.5C 154.741,137.359 155.575,137.359 156.5,138.5C 158.295,134.393 160.795,133.727 164,136.5C 165.569,136.153 167.402,135.986 169.5,136C 166.708,139.065 166.375,142.231 168.5,145.5C 166.629,145.141 165.129,144.141 164,142.5C 160.924,143.288 157.758,143.788 154.5,144C 153.027,144.71 152.36,145.876 152.5,147.5C 150.766,148.562 149.099,148.562 147.5,147.5C 146.922,146.453 146.256,146.62 145.5,148C 143.527,148.495 141.527,148.662 139.5,148.5C 139.5,145.167 139.5,141.833 139.5,138.5C 141.857,138.337 144.19,138.503 146.5,139C 147.823,139.816 148.489,140.983 148.5,142.5C 148.56,143.043 148.893,143.376 149.5,143.5C 150.793,141.364 150.793,139.364 149.5,137.5C 143.401,137.167 138.068,137.5 133.5,138.5C 134.101,145.289 133.434,151.789 131.5,158C 131.833,158.333 132.167,158.667 132.5,159C 130.91,160.046 129.41,161.213 128,162.5C 127.505,160.527 127.338,158.527 127.5,156.5C 130.474,151.145 130.141,146.145 126.5,141.5C 122.568,136.877 117.568,135.377 111.5,137C 109.416,137.697 107.749,138.864 106.5,140.5C 105.11,141.899 104.11,143.566 103.5,145.5C 101.803,147.305 100.97,149.639 101,152.5C 100.667,151.833 100.333,151.167 100,150.5C 100.397,146.12 100.563,141.787 100.5,137.5C 102.011,138.502 103.678,139.169 105.5,139.5C 105.523,137.4 104.856,135.567 103.5,134C 103.954,132.378 104.954,131.212 106.5,130.5C 108.271,131.035 108.604,131.869 107.5,133C 108.5,133.5 109.5,134 110.5,134.5C 111.912,133.194 113.579,132.36 115.5,132C 114.167,131.333 114.167,130.667 115.5,130C 117.809,129.244 119.809,129.744 121.5,131.5C 121.154,132.696 120.654,132.696 120,131.5C 119.517,132.448 119.351,133.448 119.5,134.5C 124.953,136.994 128.62,135.494 130.5,130C 128.895,126.531 127.895,126.698 127.5,130.5C 126.5,130.5 125.5,130.5 124.5,130.5C 124.561,128.408 125.561,126.908 127.5,126C 127.167,125.833 126.833,125.667 126.5,125.5C 122.337,125.493 118.004,125.66 113.5,126C 112.391,126.638 111.225,127.138 110,127.5C 107.283,125.864 104.95,126.197 103,128.5C 102.667,128.167 102.333,127.833 102,127.5C 100.686,129.812 99.0194,131.812 97,133.5C 95.9412,133.37 95.1079,132.87 94.5,132C 95.6174,130.108 97.2841,129.275 99.5,129.5C 99.67,128.178 99.3366,127.011 98.5,126C 102.5,125.667 106.5,125.333 110.5,125C 102.5,124.333 94.5,124.333 86.5,125C 89.5,125.333 92.5,125.667 95.5,126C 94.3279,126.419 93.3279,127.085 92.5,128C 92.9437,129.533 93.277,131.033 93.5,132.5C 93,132.833 92.5,133.167 92,133.5C 90.1643,131.585 88.9976,129.252 88.5,126.5C 86.8685,127.297 85.3685,128.297 84,129.5C 82.7147,129.05 81.548,128.383 80.5,127.5C 79.7836,128.311 78.9503,128.978 78,129.5C 75,126.833 72,126.833 69,129.5C 67.0986,128.464 65.2652,127.298 63.5,126C 68.9325,126.118 73.9325,125.285 78.5,123.5C 95.6749,123.83 112.675,123.497 129.5,122.5 Z"/></g>
<g><path style="opacity:1" fill="#0b1b2c" d="M 90.5,137.5 C 91.9885,139.645 92.9885,141.978 93.5,144.5C 89.8333,144.5 86.1667,144.5 82.5,144.5C 84.2635,143.178 85.9301,141.678 87.5,140C 83.8472,135.731 80.8472,135.564 78.5,139.5C 76.9324,137.8 75.099,136.466 73,135.5C 72.3333,133.833 72.3333,132.167 73,130.5C 76.1328,133.867 79.4661,134.201 83,131.5C 84.7326,134.465 87.2326,136.465 90.5,137.5 Z"/></g>
<g><path style="opacity:1" fill="#0d1929" d="M 191.5,143.5 C 188.989,143.838 186.655,143.838 184.5,143.5C 182.664,144.028 180.997,144.694 179.5,145.5C 178.542,145.953 177.708,146.619 177,147.5C 176.722,146.584 176.222,145.918 175.5,145.5C 175.167,145.5 174.833,145.5 174.5,145.5C 173.167,145.5 171.833,145.5 170.5,145.5C 170.712,143.616 171.712,142.283 173.5,141.5C 172.96,140.252 172.293,139.085 171.5,138C 174.381,136.749 176.214,134.583 177,131.5C 177.804,132.804 178.971,133.471 180.5,133.5C 183.165,132.112 184.165,133.112 183.5,136.5C 181.089,136.137 179.589,137.137 179,139.5C 177.443,138.795 176.277,139.461 175.5,141.5C 179.38,142.795 183.214,142.795 187,141.5C 188.622,142.099 190.122,142.766 191.5,143.5 Z"/></g>
<g><path style="opacity:1" fill="#bdb6ac" d="M 149.5,137.5 C 149.784,139.415 149.451,141.081 148.5,142.5C 148.489,140.983 147.823,139.816 146.5,139C 144.19,138.503 141.857,138.337 139.5,138.5C 139.5,141.833 139.5,145.167 139.5,148.5C 138.521,145.375 138.187,142.042 138.5,138.5C 137.209,138.263 136.209,138.596 135.5,139.5C 134.833,139.167 134.167,138.833 133.5,138.5C 138.068,137.5 143.401,137.167 149.5,137.5 Z"/></g>
<g><path style="opacity:1" fill="#0b1931" d="M 7.5,138.5 C 10.1667,138.5 12.8333,138.5 15.5,138.5C 15.3338,144.509 15.5005,150.509 16,156.5C 16.3742,157.416 16.8742,158.25 17.5,159C 15.98,161.54 14.98,164.373 14.5,167.5C 13.52,164.914 13.1866,162.247 13.5,159.5C 12.1667,159.5 10.8333,159.5 9.5,159.5C 9.84253,156.281 9.17586,154.114 7.5,153C 8.61825,150.941 9.28491,148.774 9.5,146.5C 8.16667,146.5 6.83333,146.5 5.5,146.5C 6.14947,144.523 6.14947,142.69 5.5,141C 6.05558,139.989 6.72225,139.156 7.5,138.5 Z"/></g>
<g><path style="opacity:1" fill="#b3ac9e" d="M 126.5,141.5 C 124.824,142.183 124.157,143.517 124.5,145.5C 122.408,139.366 118.408,137.366 112.5,139.5C 111.833,139.5 111.5,139.833 111.5,140.5C 110.5,141.167 109.5,141.833 108.5,142.5C 108.5,141.167 107.833,140.5 106.5,140.5C 107.749,138.864 109.416,137.697 111.5,137C 117.568,135.377 122.568,136.877 126.5,141.5 Z"/></g>
<g><path style="opacity:1" fill="#494b53" d="M 149.5,137.5 C 150.793,139.364 150.793,141.364 149.5,143.5C 148.893,143.376 148.56,143.043 148.5,142.5C 149.451,141.081 149.784,139.415 149.5,137.5 Z"/></g>
<g><path style="opacity:1" fill="#1a1c1f" d="M 168.5,145.5 C 169.167,145.5 169.833,145.5 170.5,145.5C 169.34,147.203 170.007,147.869 172.5,147.5C 172.818,152.032 172.485,156.366 171.5,160.5C 171.167,160.5 170.833,160.5 170.5,160.5C 169.167,161.933 167.667,163.267 166,164.5C 165.292,163.619 164.458,162.953 163.5,162.5C 169.621,157.295 169.955,151.795 164.5,146C 160.198,144.994 156.198,145.494 152.5,147.5C 152.36,145.876 153.027,144.71 154.5,144C 157.758,143.788 160.924,143.288 164,142.5C 165.129,144.141 166.629,145.141 168.5,145.5 Z"/></g>
<g><path style="opacity:1" fill="#d3bf98" d="M 59.5,139.5 C 59.9321,140.71 60.5987,141.71 61.5,142.5C 62.8489,149.262 65.5155,155.262 69.5,160.5C 66.8333,161.833 64.1667,161.833 61.5,160.5C 61.8294,157.772 61.1628,155.438 59.5,153.5C 59.5,153.167 59.5,152.833 59.5,152.5C 59.7373,151.209 59.404,150.209 58.5,149.5C 57.8333,147.5 57.1667,145.5 56.5,143.5C 55.0464,140.6 56.0464,139.267 59.5,139.5 Z"/></g>
<g><path style="opacity:1" fill="#201d19" d="M 56.5,143.5 C 57.1667,145.5 57.8333,147.5 58.5,149.5C 57.0821,151.308 55.0821,151.975 52.5,151.5C 52.8961,148.279 54.2295,145.612 56.5,143.5 Z"/></g>
<g><path style="opacity:1" fill="#2b2a28" d="M 71.5,145.5 C 75.3538,144.544 79.0204,144.544 82.5,145.5C 85.0835,147.419 84.7502,149.086 81.5,150.5C 79.0197,149.585 78.3531,148.085 79.5,146C 76.854,145.503 74.1873,145.336 71.5,145.5 Z"/></g>
<g><path style="opacity:1" fill="#bcb4a4" d="M 147.5,147.5 C 147.784,149.415 147.451,151.081 146.5,152.5C 144.721,150.656 142.388,149.99 139.5,150.5C 139.5,153.5 139.5,156.5 139.5,159.5C 138.213,155.935 138.213,152.268 139.5,148.5C 141.527,148.662 143.527,148.495 145.5,148C 146.256,146.62 146.922,146.453 147.5,147.5 Z"/></g>
<g><path style="opacity:1" fill="#1a1b1f" d="M 61.5,142.5 C 64.0209,144.03 65.0209,146.364 64.5,149.5C 65.5,149.5 66.5,149.5 67.5,149.5C 66.5769,153.849 67.9102,157.183 71.5,159.5C 73.0413,157.796 74.3746,155.963 75.5,154C 74.6086,151.721 73.6086,149.554 72.5,147.5C 75.0016,149.17 77.0016,151.336 78.5,154C 76.2419,156.466 73.9086,158.633 71.5,160.5C 70.8333,160.5 70.1667,160.5 69.5,160.5C 65.5155,155.262 62.8489,149.262 61.5,142.5 Z"/></g>
<g><path style="opacity:1" fill="#2f2c27" d="M 191.5,143.5 C 192.167,143.5 192.833,143.5 193.5,143.5C 196.082,143.025 198.082,143.692 199.5,145.5C 196.518,145.104 193.851,145.771 191.5,147.5C 189.379,145.102 187.045,144.935 184.5,147C 185.448,147.483 186.448,147.649 187.5,147.5C 188.097,152.294 187.43,156.627 185.5,160.5C 185.823,156.774 185.489,153.107 184.5,149.5C 182.291,150.106 180.124,150.773 178,151.5C 177.502,154.482 177.335,157.482 177.5,160.5C 176.357,157.024 176.19,153.358 177,149.5C 178.667,148.167 180.333,148.167 182,149.5C 183.188,148.437 183.688,147.103 183.5,145.5C 182.167,145.5 180.833,145.5 179.5,145.5C 180.997,144.694 182.664,144.028 184.5,143.5C 186.655,143.838 188.989,143.838 191.5,143.5 Z"/></g>
<g><path style="opacity:1" fill="#bfb5a5" d="M 59.5,139.5 C 56.0464,139.267 55.0464,140.6 56.5,143.5C 54.2295,145.612 52.8961,148.279 52.5,151.5C 54.6074,152.468 56.9407,152.802 59.5,152.5C 59.5,152.833 59.5,153.167 59.5,153.5C 56.8127,153.336 54.146,153.503 51.5,154C 50.6422,155.57 49.9755,157.237 49.5,159C 49.8361,160.03 50.5028,160.53 51.5,160.5C 49.1667,161.833 46.8333,161.833 44.5,160.5C 45.7498,160.423 46.5831,159.756 47,158.5C 48.4665,155.242 49.6332,151.908 50.5,148.5C 52.6313,145.3 54.2979,141.8 55.5,138C 57.4628,137.156 58.7961,137.656 59.5,139.5 Z"/></g>
<g><path style="opacity:1" fill="#7a6d5c" d="M 58.5,149.5 C 59.404,150.209 59.7373,151.209 59.5,152.5C 56.9407,152.802 54.6074,152.468 52.5,151.5C 55.0821,151.975 57.0821,151.308 58.5,149.5 Z"/></g>
<g><path style="opacity:1" fill="#bfb39f" d="M 170.5,145.5 C 171.833,145.5 173.167,145.5 174.5,145.5C 173.28,150.15 173.28,154.817 174.5,159.5C 175.493,154.88 175.827,150.214 175.5,145.5C 176.222,145.918 176.722,146.584 177,147.5C 177.708,146.619 178.542,145.953 179.5,145.5C 180.833,145.5 182.167,145.5 183.5,145.5C 183.688,147.103 183.188,148.437 182,149.5C 180.333,148.167 178.667,148.167 177,149.5C 176.19,153.358 176.357,157.024 177.5,160.5C 177.833,160.5 178.167,160.5 178.5,160.5C 176.167,161.833 173.833,161.833 171.5,160.5C 172.485,156.366 172.818,152.032 172.5,147.5C 170.007,147.869 169.34,147.203 170.5,145.5 Z"/></g>
<g><path style="opacity:1" fill="#e5cba2" d="M 174.5,145.5 C 174.833,145.5 175.167,145.5 175.5,145.5C 175.827,150.214 175.493,154.88 174.5,159.5C 173.28,154.817 173.28,150.15 174.5,145.5 Z"/></g>
<g><path style="opacity:1" fill="#ddc9a6" d="M 139.5,148.5 C 138.213,152.268 138.213,155.935 139.5,159.5C 139.5,160.167 139.833,160.5 140.5,160.5C 138.5,161.833 136.5,161.833 134.5,160.5C 135.491,153.687 135.825,146.687 135.5,139.5C 136.209,138.596 137.209,138.263 138.5,138.5C 138.187,142.042 138.521,145.375 139.5,148.5 Z"/></g>
<g><path style="opacity:1" fill="#c0b092" d="M 199.5,145.5 C 200.482,146.141 201.482,146.807 202.5,147.5C 206.199,144.842 209.866,144.842 213.5,147.5C 213.5,151.833 213.5,156.167 213.5,160.5C 211.5,161.833 209.5,161.833 207.5,160.5C 208.645,156.689 208.812,152.689 208,148.5C 206.062,147.14 204.396,147.473 203,149.5C 202.501,153.152 202.335,156.818 202.5,160.5C 200.833,161.833 199.167,161.833 197.5,160.5C 197.666,156.486 197.499,152.486 197,148.5C 195.062,147.14 193.396,147.473 192,149.5C 191.501,153.152 191.335,156.818 191.5,160.5C 189.5,161.833 187.5,161.833 185.5,160.5C 187.43,156.627 188.097,152.294 187.5,147.5C 186.448,147.649 185.448,147.483 184.5,147C 187.045,144.935 189.379,145.102 191.5,147.5C 193.851,145.771 196.518,145.104 199.5,145.5 Z"/></g>
<g><path style="opacity:1" fill="#212022" d="M 59.5,153.5 C 61.1628,155.438 61.8294,157.772 61.5,160.5C 60.8333,160.5 60.1667,160.5 59.5,160.5C 59.5,159.167 59.5,157.833 59.5,156.5C 56.11,156.115 53.7767,157.448 52.5,160.5C 52.1667,160.5 51.8333,160.5 51.5,160.5C 50.5028,160.53 49.8361,160.03 49.5,159C 49.9755,157.237 50.6422,155.57 51.5,154C 54.146,153.503 56.8127,153.336 59.5,153.5 Z"/></g>
<g><path style="opacity:1" fill="#cebea2" d="M 71.5,145.5 C 74.1873,145.336 76.854,145.503 79.5,146C 78.3531,148.085 79.0197,149.585 81.5,150.5C 84.7502,149.086 85.0835,147.419 82.5,145.5C 84.8568,145.337 87.1902,145.503 89.5,146C 86.6894,147.644 84.356,149.81 82.5,152.5C 84.2211,155.876 86.5545,158.543 89.5,160.5C 87.1667,161.833 84.8333,161.833 82.5,160.5C 80.5,155.167 78.5,155.167 76.5,160.5C 74.8333,161.833 73.1667,161.833 71.5,160.5C 73.9086,158.633 76.2419,156.466 78.5,154C 77.0016,151.336 75.0016,149.17 72.5,147.5C 72.1667,146.833 71.8333,146.167 71.5,145.5 Z"/></g>
<g><path style="opacity:1" fill="#241e1b" d="M 146.5,152.5 C 144.865,151.185 143.199,151.185 141.5,152.5C 140.52,155.086 140.187,157.753 140.5,160.5C 139.833,160.5 139.5,160.167 139.5,159.5C 139.5,156.5 139.5,153.5 139.5,150.5C 142.388,149.99 144.721,150.656 146.5,152.5 Z"/></g>
<g><path style="opacity:1" fill="#c2b59e" d="M 163.5,162.5 C 162.5,162.5 161.5,162.5 160.5,162.5C 156.112,163.057 152.945,161.39 151,157.5C 150.037,153.851 150.537,150.518 152.5,147.5C 156.198,145.494 160.198,144.994 164.5,146C 169.955,151.795 169.621,157.295 163.5,162.5 Z"/></g>
<g><path style="opacity:1" fill="#1f1e1a" d="M 157.5,146.5 C 160.238,145.965 162.072,146.965 163,149.5C 163.667,152.5 163.667,155.5 163,158.5C 160.731,161.054 158.398,161.054 156,158.5C 154.994,154.198 155.494,150.198 157.5,146.5 Z"/></g>
<g><path style="opacity:1" fill="#12182b" d="M 157.5,148.5 C 158.833,148.5 160.167,148.5 161.5,148.5C 161.664,151.187 161.497,153.854 161,156.5C 158.562,159.079 157.062,158.413 156.5,154.5C 156.803,152.471 157.136,150.471 157.5,148.5 Z"/></g>
<g><path style="opacity:1" fill="#1a1d20" d="M 147.5,147.5 C 149.099,148.562 150.766,148.562 152.5,147.5C 150.537,150.518 150.037,153.851 151,157.5C 152.945,161.39 156.112,163.057 160.5,162.5C 157.36,163.641 154.027,163.808 150.5,163C 149.736,160.931 149.236,158.764 149,156.5C 148.583,155.244 147.75,154.577 146.5,154.5C 146.5,153.833 146.5,153.167 146.5,152.5C 147.451,151.081 147.784,149.415 147.5,147.5 Z"/></g>
<g><path style="opacity:1" fill="#757476" d="M 44.5,160.5 C 46.8333,161.833 49.1667,161.833 51.5,160.5C 51.8333,160.5 52.1667,160.5 52.5,160.5C 51.4855,161.765 49.9855,162.431 48,162.5C 46.5,162.167 45,161.833 43.5,161.5C 43.6236,160.893 43.9569,160.56 44.5,160.5 Z"/></g>
<g><path style="opacity:1" fill="#79776e" d="M 59.5,160.5 C 60.1667,160.5 60.8333,160.5 61.5,160.5C 64.1667,161.833 66.8333,161.833 69.5,160.5C 70.1667,160.5 70.8333,160.5 71.5,160.5C 73.1667,161.833 74.8333,161.833 76.5,160.5C 77.0431,160.56 77.3764,160.893 77.5,161.5C 71.5368,162.496 65.5368,162.829 59.5,162.5C 59.5,161.833 59.5,161.167 59.5,160.5 Z"/></g>
<g><path style="opacity:1" fill="#7f7b75" d="M 134.5,160.5 C 136.5,161.833 138.5,161.833 140.5,160.5C 141.833,160.5 142.5,161.167 142.5,162.5C 139.102,162.82 135.768,162.487 132.5,161.5C 132.957,160.702 133.624,160.369 134.5,160.5 Z"/></g>
<g><path style="opacity:1" fill="#777671" d="M 170.5,160.5 C 170.833,160.5 171.167,160.5 171.5,160.5C 173.833,161.833 176.167,161.833 178.5,160.5C 179.043,160.56 179.376,160.893 179.5,161.5C 178,161.833 176.5,162.167 175,162.5C 173.014,162.431 171.514,161.765 170.5,160.5 Z"/></g>
<g><path style="opacity:1" fill="#76736e" d="M 185.5,160.5 C 187.5,161.833 189.5,161.833 191.5,160.5C 192.376,160.369 193.043,160.702 193.5,161.5C 191.955,162.452 190.288,162.785 188.5,162.5C 187.022,162.762 185.689,162.429 184.5,161.5C 184.624,160.893 184.957,160.56 185.5,160.5 Z"/></g>
<g><path style="opacity:1" fill="#141820" d="M 197.5,160.5 C 196.624,160.369 195.957,160.702 195.5,161.5C 198.5,162.833 201.5,162.833 204.5,161.5C 204.043,160.702 203.376,160.369 202.5,160.5C 202.335,156.818 202.501,153.152 203,149.5C 204.396,147.473 206.062,147.14 208,148.5C 208.812,152.689 208.645,156.689 207.5,160.5C 206.957,160.56 206.624,160.893 206.5,161.5C 209.5,162.833 212.5,162.833 215.5,161.5C 215.043,160.702 214.376,160.369 213.5,160.5C 213.5,156.167 213.5,151.833 213.5,147.5C 215.268,151.044 216.102,155.044 216,159.5C 217.067,160.191 218.234,160.691 219.5,161C 217.441,163.529 214.774,164.696 211.5,164.5C 203.669,163.97 196.002,163.304 188.5,162.5C 190.288,162.785 191.955,162.452 193.5,161.5C 193.043,160.702 192.376,160.369 191.5,160.5C 191.335,156.818 191.501,153.152 192,149.5C 193.396,147.473 195.062,147.14 197,148.5C 197.499,152.486 197.666,156.486 197.5,160.5 Z"/></g>
<g><path style="opacity:1" fill="#7c7a76" d="M 207.5,160.5 C 209.5,161.833 211.5,161.833 213.5,160.5C 214.376,160.369 215.043,160.702 215.5,161.5C 212.5,162.833 209.5,162.833 206.5,161.5C 206.624,160.893 206.957,160.56 207.5,160.5 Z"/></g>
<g><path style="opacity:1" fill="#807c72" d="M 197.5,160.5 C 199.167,161.833 200.833,161.833 202.5,160.5C 203.376,160.369 204.043,160.702 204.5,161.5C 201.5,162.833 198.5,162.833 195.5,161.5C 195.957,160.702 196.624,160.369 197.5,160.5 Z"/></g>
<g><path style="opacity:1" fill="#1b1d23" d="M 100.5,137.5 C 100.563,141.787 100.397,146.12 100,150.5C 100.333,151.167 100.667,151.833 101,152.5C 100.97,149.639 101.803,147.305 103.5,145.5C 103.335,148.85 103.502,152.183 104,155.5C 104.278,156.416 104.778,157.082 105.5,157.5C 106.29,158.794 107.29,159.961 108.5,161C 113.417,163.432 118.417,165.598 123.5,167.5C 126.073,167.547 128.073,166.547 129.5,164.5C 126.998,164.379 124.332,164.212 121.5,164C 121.167,163.667 120.833,163.333 120.5,163C 121.731,161.595 123.064,160.429 124.5,159.5C 125.728,158.694 126.728,157.694 127.5,156.5C 127.338,158.527 127.505,160.527 128,162.5C 129.41,161.213 130.91,160.046 132.5,159C 132.167,158.667 131.833,158.333 131.5,158C 133.434,151.789 134.101,145.289 133.5,138.5C 134.167,138.833 134.833,139.167 135.5,139.5C 135.825,146.687 135.491,153.687 134.5,160.5C 133.624,160.369 132.957,160.702 132.5,161.5C 135.768,162.487 139.102,162.82 142.5,162.5C 138.75,164.094 134.75,165.261 130.5,166C 129.245,168.46 127.245,169.627 124.5,169.5C 118.18,168.527 112.18,166.527 106.5,163.5C 106.107,159.26 104.441,158.593 101.5,161.5C 100.791,160.596 99.791,160.263 98.5,160.5C 98.5,155.5 98.5,150.5 98.5,145.5C 96.076,145.192 93.7427,145.526 91.5,146.5C 92.325,147.386 93.325,147.719 94.5,147.5C 94.8182,152.032 94.4849,156.366 93.5,160.5C 92.6236,160.369 91.9569,160.702 91.5,161.5C 94.4281,162.484 97.4281,162.817 100.5,162.5C 99.3588,163.339 98.0255,164.006 96.5,164.5C 93.2053,163.551 89.872,163.551 86.5,164.5C 83.4442,163.412 80.4442,163.412 77.5,164.5C 73.3575,163.983 69.3575,163.983 65.5,164.5C 63.1175,164.639 61.1175,163.972 59.5,162.5C 65.5368,162.829 71.5368,162.496 77.5,161.5C 77.3764,160.893 77.0431,160.56 76.5,160.5C 78.5,155.167 80.5,155.167 82.5,160.5C 81.9569,160.56 81.6236,160.893 81.5,161.5C 84.5,162.833 87.5,162.833 90.5,161.5C 90.3764,160.893 90.0431,160.56 89.5,160.5C 86.5545,158.543 84.2211,155.876 82.5,152.5C 84.356,149.81 86.6894,147.644 89.5,146C 87.1902,145.503 84.8568,145.337 82.5,145.5C 82.5,145.167 82.5,144.833 82.5,144.5C 86.1667,144.5 89.8333,144.5 93.5,144.5C 92.9885,141.978 91.9885,139.645 90.5,137.5C 93.9488,134.925 97.2822,134.925 100.5,137.5 Z"/></g>
<g><path style="opacity:1" fill="#7d7a76" d="M 93.5,160.5 C 95.1667,161.833 96.8333,161.833 98.5,160.5C 99.791,160.263 100.791,160.596 101.5,161.5C 101.5,162.167 101.167,162.5 100.5,162.5C 97.4281,162.817 94.4281,162.484 91.5,161.5C 91.9569,160.702 92.6236,160.369 93.5,160.5 Z"/></g>
<g><path style="opacity:1" fill="#7c786e" d="M 82.5,160.5 C 84.8333,161.833 87.1667,161.833 89.5,160.5C 90.0431,160.56 90.3764,160.893 90.5,161.5C 87.5,162.833 84.5,162.833 81.5,161.5C 81.6236,160.893 81.9569,160.56 82.5,160.5 Z"/></g>
<g><path style="opacity:1" fill="#dfcbaa" d="M 98.5,160.5 C 96.8333,161.833 95.1667,161.833 93.5,160.5C 94.4849,156.366 94.8182,152.032 94.5,147.5C 95.397,146.402 96.2303,146.402 97,147.5C 97.1753,152.019 97.6753,156.353 98.5,160.5 Z"/></g>
<g><path style="opacity:1" fill="#0e1928" d="M 112.5,139.5 C 114.898,139.259 116.898,139.926 118.5,141.5C 112.27,141.955 109.603,145.288 110.5,151.5C 111.5,151.5 112.5,151.5 113.5,151.5C 113.5,152.833 113.5,154.167 113.5,155.5C 115.5,155.5 117.5,155.5 119.5,155.5C 119.803,152.412 118.47,150.746 115.5,150.5C 115.5,149.167 115.5,147.833 115.5,146.5C 118.049,146.441 120.049,147.441 121.5,149.5C 122.298,149.043 122.631,148.376 122.5,147.5C 123.828,148.91 123.495,150.076 121.5,151C 122.059,151.725 122.392,152.558 122.5,153.5C 121.349,155.325 120.682,157.325 120.5,159.5C 120.167,159.5 119.833,159.5 119.5,159.5C 112.17,159.416 108.837,155.582 109.5,148C 109.965,145.397 110.632,142.897 111.5,140.5C 111.5,139.833 111.833,139.5 112.5,139.5 Z"/></g>
<g><path style="opacity:1" fill="#d8c6a6" d="M 106.5,140.5 C 107.833,140.5 108.5,141.167 108.5,142.5C 107.167,146.833 107.167,151.167 108.5,155.5C 107.71,156.401 106.71,157.068 105.5,157.5C 104.778,157.082 104.278,156.416 104,155.5C 103.502,152.183 103.335,148.85 103.5,145.5C 104.11,143.566 105.11,141.899 106.5,140.5 Z"/></g>
<g><path style="opacity:1" fill="#b2a793" d="M 98.5,160.5 C 97.6753,156.353 97.1753,152.019 97,147.5C 96.2303,146.402 95.397,146.402 94.5,147.5C 93.325,147.719 92.325,147.386 91.5,146.5C 93.7427,145.526 96.076,145.192 98.5,145.5C 98.5,150.5 98.5,155.5 98.5,160.5 Z"/></g>
<g><path style="opacity:1" fill="#22211b" d="M 111.5,140.5 C 110.632,142.897 109.965,145.397 109.5,148C 108.837,155.582 112.17,159.416 119.5,159.5C 114.649,161.608 110.983,160.274 108.5,155.5C 107.167,151.167 107.167,146.833 108.5,142.5C 109.5,141.833 110.5,141.167 111.5,140.5 Z"/></g>
<g><path style="opacity:1" fill="#0d1831" d="M 118.5,141.5 C 121.32,142.465 122.653,144.465 122.5,147.5C 122.631,148.376 122.298,149.043 121.5,149.5C 120.049,147.441 118.049,146.441 115.5,146.5C 115.5,147.833 115.5,149.167 115.5,150.5C 118.47,150.746 119.803,152.412 119.5,155.5C 117.5,155.5 115.5,155.5 113.5,155.5C 113.5,154.167 113.5,152.833 113.5,151.5C 112.5,151.5 111.5,151.5 110.5,151.5C 109.603,145.288 112.27,141.955 118.5,141.5 Z"/></g>
<g><path style="opacity:1" fill="#d8c4a2" d="M 126.5,141.5 C 130.141,146.145 130.474,151.145 127.5,156.5C 126.728,157.694 125.728,158.694 124.5,159.5C 123.761,159.631 123.094,159.464 122.5,159C 123.252,158.329 123.586,157.496 123.5,156.5C 124.344,152.901 124.677,149.234 124.5,145.5C 124.157,143.517 124.824,142.183 126.5,141.5 Z"/></g>
<g><path style="opacity:1" fill="#25231c" d="M 112.5,139.5 C 118.408,137.366 122.408,139.366 124.5,145.5C 124.677,149.234 124.344,152.901 123.5,156.5C 122.272,157.306 121.272,158.306 120.5,159.5C 120.682,157.325 121.349,155.325 122.5,153.5C 122.392,152.558 122.059,151.725 121.5,151C 123.495,150.076 123.828,148.91 122.5,147.5C 122.653,144.465 121.32,142.465 118.5,141.5C 116.898,139.926 114.898,139.259 112.5,139.5 Z"/></g>
<g><path style="opacity:1" fill="#bfb5a9" d="M 94.5,137.5 C 95.8333,137.5 97.1667,137.5 98.5,137.5C 98.5,138.833 98.5,140.167 98.5,141.5C 94.56,142.234 93.2266,140.901 94.5,137.5 Z"/></g>
<g><path style="opacity:1" fill="#c1b29d" d="M 108.5,155.5 C 110.983,160.274 114.649,161.608 119.5,159.5C 119.833,159.5 120.167,159.5 120.5,159.5C 121.272,158.306 122.272,157.306 123.5,156.5C 123.586,157.496 123.252,158.329 122.5,159C 123.094,159.464 123.761,159.631 124.5,159.5C 123.064,160.429 121.731,161.595 120.5,163C 120.833,163.333 121.167,163.667 121.5,164C 124.332,164.212 126.998,164.379 129.5,164.5C 128.073,166.547 126.073,167.547 123.5,167.5C 118.417,165.598 113.417,163.432 108.5,161C 107.29,159.961 106.29,158.794 105.5,157.5C 106.71,157.068 107.71,156.401 108.5,155.5 Z"/></g>
<g><path style="opacity:1" fill="#0b1831" d="M 146.5,152.5 C 146.5,153.167 146.5,153.833 146.5,154.5C 146.92,156.094 147.586,157.594 148.5,159C 146.737,160.654 146.404,162.487 147.5,164.5C 150.661,166.355 153.828,166.688 157,165.5C 157.692,166.025 158.192,166.692 158.5,167.5C 154.855,168.287 151.188,168.454 147.5,168C 146.228,169.307 145.228,170.807 144.5,172.5C 140.664,171.08 136.997,170.58 133.5,171C 134.167,171.667 134.833,172.333 135.5,173C 138.5,173.333 141.5,173.667 144.5,174C 144.167,174.333 143.833,174.667 143.5,175C 145.464,175.624 147.131,175.124 148.5,173.5C 149.711,174.274 149.711,175.107 148.5,176C 146.866,176.494 145.199,176.66 143.5,176.5C 143.286,178.144 143.62,179.644 144.5,181C 142.5,181.333 140.5,181.667 138.5,182C 142.831,186.506 141.831,189.006 135.5,189.5C 136.053,187.061 136.053,184.727 135.5,182.5C 133.234,181.686 130.9,181.186 128.5,181C 127.594,179.301 127.261,177.467 127.5,175.5C 129.262,175.357 130.929,175.691 132.5,176.5C 133.308,176.192 133.975,175.692 134.5,175C 130.351,173.731 126.018,173.065 121.5,173C 122.163,171.482 123.163,170.315 124.5,169.5C 127.245,169.627 129.245,168.46 130.5,166C 134.75,165.261 138.75,164.094 142.5,162.5C 142.5,161.167 141.833,160.5 140.5,160.5C 140.187,157.753 140.52,155.086 141.5,152.5C 143.199,151.185 144.865,151.185 146.5,152.5 Z"/></g>
<g><path style="opacity:1" fill="#0c1932" d="M 15.5,205.5 C 13.8333,205.5 12.1667,205.5 10.5,205.5C 9.91106,203.648 9.24439,201.815 8.5,200C 9.92781,196.147 11.0945,192.314 12,188.5C 9.92737,185.27 8.09404,181.937 6.5,178.5C 4.93679,182.194 4.10346,185.86 4,189.5C 2.64305,186.314 1.14305,183.314 -0.5,180.5C -0.5,178.167 -0.5,175.833 -0.5,173.5C 1.59216,173.439 3.09216,172.439 4,170.5C 6.02144,173.286 7.52144,172.953 8.5,169.5C 8.06907,172.048 8.06907,174.715 8.5,177.5C 10.0301,174.813 12.1968,172.813 15,171.5C 15.9126,175.867 14.0793,178.367 9.5,179C 11.9766,180.633 13.8099,182.8 15,185.5C 15.5762,191.023 15.2429,196.357 14,201.5C 14.3333,201.833 14.6667,202.167 15,202.5C 15.3333,200.5 15.6667,198.5 16,196.5C 18.7913,193.727 20.6246,194.393 21.5,198.5C 20.1139,201.539 18.1139,203.873 15.5,205.5 Z"/></g>
<g><path style="opacity:1" fill="#0b1831" d="M 86.5,164.5 C 87.7914,165.473 87.7914,166.473 86.5,167.5C 83.7004,170.233 80.3671,171.9 76.5,172.5C 76.9767,173.478 77.6433,174.311 78.5,175C 76.0684,176.087 76.4017,176.587 79.5,176.5C 79.5,177.5 79.5,178.5 79.5,179.5C 75.7036,179.218 72.0369,179.218 68.5,179.5C 65.25,183.667 66.25,185.667 71.5,185.5C 71.3359,188.187 71.5026,190.854 72,193.5C 72.6409,191.187 73.9743,189.52 76,188.5C 79.4879,189.289 82.9879,190.289 86.5,191.5C 84.5729,194.35 82.4062,197.017 80,199.5C 79.586,199.043 79.086,198.709 78.5,198.5C 77.7564,199.991 77.0897,201.491 76.5,203C 73.6005,203.01 72.9338,201.677 74.5,199C 73.6667,198.167 72.8333,197.333 72,196.5C 71.7508,197.624 71.2508,198.624 70.5,199.5C 69.8652,197.217 68.5318,195.551 66.5,194.5C 64.2178,195.223 61.8845,195.557 59.5,195.5C 58.9619,191.476 58.2952,187.476 57.5,183.5C 58.8333,183.5 60.1667,183.5 61.5,183.5C 61.2965,185.39 61.9632,186.89 63.5,188C 64.9653,188.601 65.9653,188.101 66.5,186.5C 65.675,185.614 64.675,185.281 63.5,185.5C 63.3354,182.482 63.502,179.482 64,176.5C 64.8993,174.673 66.2326,173.34 68,172.5C 70.4281,174.741 72.9281,174.908 75.5,173C 72.2781,171.01 71.7781,168.51 74,165.5C 75.9552,166.453 77.6218,167.787 79,169.5C 79.6128,167.505 79.1128,165.838 77.5,164.5C 80.4442,163.412 83.4442,163.412 86.5,164.5 Z"/></g>
<g><path style="opacity:1" fill="#0b1932" d="M 192.5,171.5 C 193.391,172.261 194.058,173.261 194.5,174.5C 190.928,175.706 187.262,176.373 183.5,176.5C 183.5,178.167 183.5,179.833 183.5,181.5C 185.359,181.461 186.692,182.294 187.5,184C 182.223,185.57 182.223,187.237 187.5,189C 186.167,190 184.833,191 183.5,192C 186.217,194.65 186.051,197.15 183,199.5C 182.826,196.129 181.326,195.129 178.5,196.5C 174.719,194.795 174.719,193.462 178.5,192.5C 180.121,193.705 181.454,193.539 182.5,192C 181.552,191.517 180.552,191.351 179.5,191.5C 179.833,188.5 178.5,187.167 175.5,187.5C 175.762,188.978 175.429,190.311 174.5,191.5C 173.752,188.503 173.085,185.503 172.5,182.5C 173.162,179.639 174.662,178.973 177,180.5C 181.538,179.775 182.372,177.775 179.5,174.5C 182.997,173.277 186.497,173.277 190,174.5C 191.749,174.252 192.582,173.252 192.5,171.5 Z"/></g>
<g><path style="opacity:1" fill="#0b192b" d="M 10.5,205.5 C 6.83333,205.5 3.16667,205.5 -0.5,205.5C -0.5,197.167 -0.5,188.833 -0.5,180.5C 1.14305,183.314 2.64305,186.314 4,189.5C 4.10346,185.86 4.93679,182.194 6.5,178.5C 8.09404,181.937 9.92737,185.27 12,188.5C 11.0945,192.314 9.92781,196.147 8.5,200C 9.24439,201.815 9.91106,203.648 10.5,205.5 Z"/></g>
</svg>
